<?xml version="1.0" encoding="utf-8"?>
<!-- Generator: Adobe Illustrator 16.0.0, SVG Export Plug-In . SVG Version: 6.00 Build 0)  -->
<!DOCTYPE svg PUBLIC "-//W3C//DTD SVG 1.1//EN" "http://www.w3.org/Graphics/SVG/1.1/DTD/svg11.dtd">
<svg version="1.1" id="Layer_1" xmlns="http://www.w3.org/2000/svg" xmlns:xlink="http://www.w3.org/1999/xlink" x="0px" y="0px"
	 width="960px" height="560px" viewBox="0 0 960 560" enable-background="new 0 0 960 560" xml:space="preserve">
<g>
	<g>
		<g enable-background="new    ">
			<g enable-background="new    ">
				<defs>
					<path id="SVGID_1_" enable-background="new    " d="M311.469,118.241c-4.946-1.524-9.892-3.048-14.837-4.573
						c0.372,0.115,0.839,0.165,1.4,0.149c1.092-0.032,2.407-0.339,3.937-0.903l14.838,4.573c-1.53,0.564-2.845,0.871-3.937,0.902
						C312.309,118.406,311.841,118.355,311.469,118.241z"/>
				</defs>
				<clipPath id="SVGID_2_">
					<use xlink:href="#SVGID_1_"  overflow="visible"/>
				</clipPath>
				<g clip-path="url(#SVGID_2_)" enable-background="new    ">
					<path fill="#048997" d="M311.469,118.241l-14.837-4.573c0.372,0.115,0.839,0.165,1.4,0.149
						c0.227-0.007,0.463-0.025,0.708-0.055l14.838,4.573c-0.246,0.03-0.482,0.048-0.708,0.055
						C312.309,118.406,311.841,118.355,311.469,118.241"/>
					<path fill="#038592" d="M313.578,118.334l-14.838-4.573c0.938-0.115,2.016-0.4,3.229-0.848l14.838,4.573
						C315.594,117.934,314.516,118.22,313.578,118.334"/>
				</g>
			</g>
			<g>
				<polygon fill="#048A98" points="310.054,102.032 295.216,97.459 301.98,97.263 316.818,101.836 				"/>
			</g>
			<g enable-background="new    ">
				<defs>
					<path id="SVGID_3_" enable-background="new    " d="M299.447,126.792l-14.838-4.573c-0.04-0.013-0.08-0.025-0.12-0.038
						c-1.847-0.591-3.23-1.411-4.167-2.468l14.838,4.573c0.936,1.057,2.319,1.877,4.167,2.468
						C299.367,126.768,299.407,126.78,299.447,126.792z"/>
				</defs>
				<clipPath id="SVGID_4_">
					<use xlink:href="#SVGID_3_"  overflow="visible"/>
				</clipPath>
				<g clip-path="url(#SVGID_4_)" enable-background="new    ">
					<path fill="#037783" d="M299.447,126.792l-14.838-4.573c-0.04-0.013-0.08-0.025-0.12-0.038
						c-1.847-0.591-3.23-1.411-4.167-2.468l14.838,4.573c0.936,1.057,2.319,1.877,4.167,2.468
						C299.367,126.768,299.407,126.78,299.447,126.792"/>
				</g>
			</g>
			<g enable-background="new    ">
				<defs>
					<path id="SVGID_5_" enable-background="new    " d="M295.161,124.287l-14.838-4.573c-0.506-0.612-0.884-1.175-1.133-1.687
						c-0.24-0.504-0.42-1.081-0.531-1.723l14.838,4.573c0.111,0.642,0.291,1.219,0.531,1.723
						C294.277,123.112,294.654,123.674,295.161,124.287z"/>
				</defs>
				<clipPath id="SVGID_6_">
					<use xlink:href="#SVGID_5_"  overflow="visible"/>
				</clipPath>
				<g clip-path="url(#SVGID_6_)" enable-background="new    ">
					<path fill="#037783" d="M295.161,124.287l-14.838-4.573c-0.506-0.612-0.884-1.175-1.133-1.687
						c-0.24-0.504-0.42-1.081-0.531-1.723l14.838,4.573c0.111,0.642,0.291,1.219,0.531,1.723
						C294.277,123.112,294.654,123.674,295.161,124.287"/>
				</g>
			</g>
			<g enable-background="new    ">
				<defs>
					<path id="SVGID_7_" enable-background="new    " d="M293.497,120.877l-14.838-4.573c-0.154-1.115-0.23-3.272-0.228-6.471
						l14.838,4.573C293.267,117.605,293.342,119.762,293.497,120.877z"/>
				</defs>
				<clipPath id="SVGID_8_">
					<use xlink:href="#SVGID_7_"  overflow="visible"/>
				</clipPath>
				<g clip-path="url(#SVGID_8_)" enable-background="new    ">
					<path fill="#037783" d="M293.497,120.877l-14.838-4.573c-0.154-1.115-0.23-3.272-0.228-6.471l14.838,4.573
						C293.267,117.605,293.342,119.762,293.497,120.877"/>
				</g>
			</g>
			<g>
				<polygon fill="#03737E" points="293.269,114.406 278.431,109.833 278.434,105.695 293.272,110.268 				"/>
			</g>
			<g>
				<polygon fill="#048694" points="293.28,98.738 278.442,94.165 295.223,87.604 310.061,92.177 				"/>
			</g>
			<g>
				<polygon fill="#03737E" points="293.277,102.518 278.439,97.945 278.442,94.165 293.28,98.738 				"/>
			</g>
			<g>
				<polygon fill="#03737E" points="289.138,110.388 274.3,105.814 274.306,98.065 289.144,102.638 				"/>
			</g>
			<g>
				<path fill="#05CFE3" d="M310.061,92.177l-0.007,9.855l6.764-0.196l-0.005,7.75l-6.764,0.196l-0.003,4.775
					c-0.001,1.559,0.188,2.592,0.565,3.11c0.352,0.509,1.107,0.756,2.259,0.723c1.092-0.032,2.407-0.338,3.937-0.902l-0.005,7.57
					c-1.092,0.587-2.665,1.125-4.737,1.607c-2.175,0.502-4.263,0.786-6.266,0.844c-2.509,0.073-4.666-0.178-6.471-0.753
					c-1.848-0.591-3.23-1.411-4.167-2.468c-0.507-0.612-0.884-1.174-1.133-1.687c-0.24-0.503-0.42-1.081-0.531-1.723
					c-0.154-1.115-0.23-3.272-0.228-6.471l0.003-4.139l-4.134,0.12l0.006-7.75l4.134-0.12l0.003-3.78L310.061,92.177z"/>
			</g>
			<g>
				<polygon fill="#048A98" points="289.144,102.638 274.306,98.065 278.439,97.945 293.277,102.518 				"/>
			</g>
		</g>
		<g enable-background="new    ">
			<g>
				<polygon fill="#048A98" points="282.264,119.733 267.426,115.161 271.26,115.049 286.098,119.622 				"/>
			</g>
			<g>
				<polygon fill="#03737E" points="265.482,127.969 250.645,123.396 250.652,112.439 265.49,117.012 				"/>
			</g>
			<g enable-background="new    ">
				<defs>
					<path id="SVGID_9_" enable-background="new    " d="M261.1,98.848l14.838,4.573c-1.697-0.523-3.729-0.749-6.097-0.681
						l-14.838-4.573C257.371,98.099,259.403,98.325,261.1,98.848z"/>
				</defs>
				<clipPath id="SVGID_10_">
					<use xlink:href="#SVGID_9_"  overflow="visible"/>
				</clipPath>
				<g clip-path="url(#SVGID_10_)" enable-background="new    ">
					<path fill="#048997" d="M269.84,102.74l-14.838-4.573c2.368-0.068,4.401,0.158,6.097,0.681l14.838,4.573
						C274.241,102.898,272.208,102.672,269.84,102.74"/>
				</g>
			</g>
			<g enable-background="new    ">
				<defs>
					<path id="SVGID_11_" enable-background="new    " d="M265.49,117.012l-14.838-4.573c0.001-2.383-0.264-3.952-0.796-4.698
						l14.838,4.573C265.226,113.06,265.492,114.629,265.49,117.012z"/>
				</defs>
				<clipPath id="SVGID_12_">
					<use xlink:href="#SVGID_11_"  overflow="visible"/>
				</clipPath>
				<g clip-path="url(#SVGID_12_)" enable-background="new    ">
					<path fill="#037783" d="M265.49,117.012l-14.838-4.573c0.001-2.383-0.264-3.952-0.796-4.698l14.838,4.573
						C265.226,113.06,265.492,114.629,265.49,117.012"/>
				</g>
			</g>
			<g enable-background="new    ">
				<defs>
					<path id="SVGID_13_" enable-background="new    " d="M248.59,106.936l14.838,4.573c0.555,0.171,0.977,0.439,1.266,0.805
						l-14.838-4.573C249.567,107.376,249.145,107.107,248.59,106.936z"/>
				</defs>
				<clipPath id="SVGID_14_">
					<use xlink:href="#SVGID_13_"  overflow="visible"/>
				</clipPath>
				<g clip-path="url(#SVGID_14_)" enable-background="new    ">
					<path fill="#037783" d="M264.694,112.314l-14.838-4.573c-0.29-0.365-0.711-0.634-1.266-0.805l14.838,4.573
						C263.983,111.68,264.405,111.949,264.694,112.314"/>
				</g>
			</g>
			<g>
				<polygon fill="#048A98" points="256.583,120.478 241.746,115.905 246.421,115.769 261.259,120.342 				"/>
			</g>
			<g enable-background="new    ">
				<defs>
					<path id="SVGID_15_" enable-background="new    " d="M256.593,106.708l-14.837-4.573c4.118-2.511,8.528-3.831,13.247-3.968
						l14.838,4.573C265.122,102.877,260.712,104.197,256.593,106.708z"/>
				</defs>
				<clipPath id="SVGID_16_">
					<use xlink:href="#SVGID_15_"  overflow="visible"/>
				</clipPath>
				<g clip-path="url(#SVGID_16_)" enable-background="new    ">
					<path fill="#03808D" d="M256.593,106.708l-14.837-4.573c1.392-0.849,2.818-1.562,4.277-2.139l14.838,4.573
						C259.412,105.146,257.986,105.859,256.593,106.708"/>
					<path fill="#038592" d="M260.871,104.569l-14.838-4.573c2.079-0.822,4.227-1.368,6.446-1.64l14.837,4.573
						C265.098,103.202,262.95,103.748,260.871,104.569"/>
					<path fill="#048997" d="M267.317,102.93l-14.837-4.573c0.831-0.102,1.672-0.165,2.523-0.189l14.838,4.573
						C268.989,102.765,268.148,102.828,267.317,102.93"/>
				</g>
			</g>
			<g>
				<polygon fill="#03737E" points="239.815,120.964 224.978,116.391 224.984,107.244 239.822,111.816 				"/>
			</g>
			<g>
				<polygon fill="#048A98" points="235.647,121.084 220.81,116.512 224.978,116.391 239.815,120.964 				"/>
			</g>
			<g>
				<polygon fill="#03737E" points="235.642,128.834 220.804,124.261 220.81,116.512 235.647,121.084 				"/>
			</g>
			<g>
				<polygon fill="#048A98" points="235.659,104.188 220.822,99.615 241.758,99.008 256.596,103.581 				"/>
			</g>
			<g>
				<path fill="#05CFE3" d="M269.84,102.74c4.134-0.12,7.245,0.659,9.332,2.346c2.07,1.687,3.1,4.461,3.097,8.323l-0.004,6.325
					l3.833-0.111l-0.006,7.75l-20.61,0.597l0.008-10.957c0.001-2.383-0.264-3.952-0.796-4.698c-0.576-0.727-1.676-1.071-3.3-1.024
					c-1.487,0.043-3.095,0.52-4.806,1.438l-0.005,7.75l4.675-0.135l-0.005,7.75l-25.612,0.742l0.006-7.75l4.168-0.121l0.006-9.147
					l-4.168,0.121l0.005-7.75l20.937-0.607l-0.002,3.127C260.712,104.197,265.122,102.877,269.84,102.74z"/>
			</g>
			<g>
				<polygon fill="#03737E" points="235.654,111.938 220.816,107.365 220.822,99.615 235.659,104.188 				"/>
			</g>
		</g>
		<g enable-background="new    ">
			<g>
				<polygon fill="#048A98" points="215.708,121.608 200.87,117.035 214.707,117.934 229.544,122.506 				"/>
			</g>
			<g enable-background="new    ">
				<defs>
					<path id="SVGID_17_" enable-background="new    " d="M210.704,124.495l-14.838-4.573c2.312-0.067,3.98-1.029,5.004-2.887
						l14.838,4.573C214.684,123.465,213.016,124.428,210.704,124.495z"/>
				</defs>
				<clipPath id="SVGID_18_">
					<use xlink:href="#SVGID_17_"  overflow="visible"/>
				</clipPath>
				<g clip-path="url(#SVGID_18_)" enable-background="new    ">
					<path fill="#048997" d="M210.704,124.495l-14.838-4.573c0.255-0.008,0.503-0.026,0.743-0.055l14.838,4.573
						C211.207,124.469,210.959,124.487,210.704,124.495"/>
					<path fill="#038592" d="M211.446,124.439l-14.838-4.573c0.559-0.068,1.075-0.196,1.548-0.382l14.838,4.573
						C212.521,124.244,212.005,124.372,211.446,124.439"/>
					<path fill="#03808D" d="M212.994,124.057l-14.838-4.573c0.353-0.139,0.681-0.312,0.986-0.516l14.838,4.573
						C213.675,123.746,213.347,123.918,212.994,124.057"/>
					<path fill="#037C88" d="M213.98,123.541l-14.838-4.573c0.317-0.213,0.609-0.461,0.875-0.745l14.838,4.573
						C214.588,123.08,214.297,123.328,213.98,123.541"/>
					<path fill="#037783" d="M214.854,122.796l-14.838-4.573c0.322-0.344,0.606-0.74,0.854-1.188l14.838,4.573
						C215.461,122.056,215.176,122.452,214.854,122.796"/>
				</g>
			</g>
			<g enable-background="new    ">
				<defs>
					<path id="SVGID_19_" enable-background="new    " d="M208.207,124.204l-14.838-4.573c0.717,0.221,1.55,0.318,2.497,0.291
						l14.838,4.573C209.756,124.522,208.924,124.425,208.207,124.204z"/>
				</defs>
				<clipPath id="SVGID_20_">
					<use xlink:href="#SVGID_19_"  overflow="visible"/>
				</clipPath>
				<g clip-path="url(#SVGID_20_)" enable-background="new    ">
					<path fill="#048997" d="M208.207,124.204l-14.838-4.573c0.717,0.221,1.55,0.318,2.497,0.291l14.838,4.573
						C209.756,124.522,208.924,124.425,208.207,124.204"/>
				</g>
			</g>
			<g enable-background="new    ">
				<defs>
					<path id="SVGID_21_" enable-background="new    " d="M196.698,105.498l14.838,4.573c0.642,0.198,1.201,0.521,1.679,0.967
						c0.884,0.853,1.331,1.951,1.33,3.285c0,0.072-0.026,0.359-0.07,0.871l-14.838-4.573c0.044-0.512,0.07-0.799,0.07-0.871
						c0.001-1.335-0.445-2.433-1.33-3.285C197.899,106.019,197.339,105.695,196.698,105.498z"/>
				</defs>
				<clipPath id="SVGID_22_">
					<use xlink:href="#SVGID_21_"  overflow="visible"/>
				</clipPath>
				<g clip-path="url(#SVGID_22_)" enable-background="new    ">
					<path fill="#037783" d="M214.475,115.194l-14.838-4.573c0.044-0.512,0.07-0.799,0.07-0.871c0.001-1.335-0.445-2.433-1.33-3.285
						c-0.478-0.446-1.038-0.77-1.679-0.967l14.838,4.573c0.642,0.198,1.201,0.521,1.679,0.967c0.884,0.853,1.331,1.951,1.33,3.285
						C214.544,114.395,214.519,114.682,214.475,115.194"/>
				</g>
			</g>
			<g>
				<polygon fill="#048A98" points="205.038,115.467 190.2,110.895 199.637,110.621 214.475,115.194 				"/>
			</g>
			<g enable-background="new    ">
				<defs>
					<path id="SVGID_23_" enable-background="new    " d="M198.272,128.888c-4.946-1.525-9.892-3.049-14.838-4.573
						c-1.499-0.461-2.824-1.039-3.977-1.731c-3.796-2.255-5.702-5.309-5.7-9.152c0.003-3.763,1.887-6.953,5.645-9.57
						c3.714-2.607,8.752-4.007,15.111-4.191c4.017-0.117,7.542,0.292,10.581,1.229c0.233,0,0.519,0.16,0.742,0.229
						c0.445,0.137,1.039,0.32,1.484,0.457c0.445,0.137,1.039,0.32,1.484,0.458c1.236,0.381,2.473,0.762,3.709,1.143
						c2.473,0.762,4.946,1.524,7.419,2.287c-3.038-0.936-6.563-1.345-10.58-1.229c-6.359,0.184-11.397,1.584-15.112,4.191
						c-3.758,2.618-5.642,5.808-5.645,9.571c-0.003,3.843,1.903,6.896,5.7,9.151C195.448,127.849,196.773,128.426,198.272,128.888z"
						/>
				</defs>
				<clipPath id="SVGID_24_">
					<use xlink:href="#SVGID_23_"  overflow="visible"/>
				</clipPath>
				<g clip-path="url(#SVGID_24_)" enable-background="new    ">
					<path fill="#037783" d="M198.272,128.888l-14.838-4.573c-1.499-0.461-2.824-1.039-3.977-1.731
						c-3.796-2.255-5.702-5.309-5.7-9.152c0.002-2.745,1.005-5.185,3.006-7.319l14.837,4.573c-2,2.135-3.003,4.575-3.005,7.32
						c-0.003,3.843,1.903,6.896,5.7,9.151C195.448,127.849,196.773,128.426,198.272,128.888"/>
					<path fill="#037C88" d="M191.601,110.685l-14.837-4.573c0.742-0.792,1.622-1.542,2.639-2.251c0.1-0.07,0.201-0.14,0.303-0.208
						l14.837,4.573c-0.102,0.068-0.203,0.138-0.303,0.208C193.223,109.143,192.343,109.893,191.601,110.685"/>
					<path fill="#03808D" d="M194.543,108.226l-14.837-4.573c1.144-0.769,2.41-1.427,3.795-1.974l14.838,4.573
						C196.953,106.799,195.688,107.458,194.543,108.226"/>
					<path fill="#038592" d="M198.339,106.252l-14.838-4.573c2.087-0.825,4.448-1.398,7.083-1.721l14.838,4.573
						C202.787,104.854,200.426,105.428,198.339,106.252"/>
					<path fill="#048997" d="M205.422,104.531l-14.838-4.573c1.249-0.153,2.558-0.249,3.929-0.289
						c4.017-0.117,7.542,0.292,10.581,1.229l14.837,4.573c-3.038-0.936-6.563-1.345-10.58-1.229
						C207.98,104.282,206.67,104.379,205.422,104.531"/>
				</g>
			</g>
			<g>
				<path fill="#05CFE3" d="M210.704,124.495c2.312-0.067,3.98-1.029,5.004-2.886l13.836,0.898c-0.628,1.12-1.497,2.131-2.606,3.032
					c-1.109,0.901-2.468,1.702-4.066,2.393c-3.224,1.411-7.083,2.186-11.57,2.315c-7.537,0.218-13.209-0.809-17.006-3.091
					c-3.797-2.255-5.703-5.309-5.7-9.151c0.003-3.763,1.887-6.953,5.645-9.571c3.715-2.607,8.752-4.007,15.112-4.191
					c6.111-0.177,11.086,0.861,14.935,3.124c3.771,2.238,5.788,5.763,6.026,10.567l-25.475,0.738
					C204.904,122.665,206.854,124.606,210.704,124.495z M206.21,111.366c-0.8,0.991-1.205,2.185-1.206,3.592
					c0,0.188,0.017,0.357,0.034,0.509l9.437-0.273c0.044-0.512,0.07-0.799,0.07-0.871c0.001-1.334-0.446-2.433-1.33-3.285
					c-0.893-0.833-2.07-1.239-3.54-1.196C208.17,109.885,207.01,110.394,206.21,111.366"/>
			</g>
		</g>
		<g enable-background="new    ">
			<g>
				<polygon fill="#037884" points="165.223,123.35 150.385,118.776 156.056,109.241 170.894,113.814 				"/>
			</g>
			<g>
				<polygon fill="#03737E" points="167.662,113.908 152.824,109.335 152.83,101.585 167.667,106.158 				"/>
			</g>
			<g>
				<polygon fill="#048A98" points="167.667,106.158 152.83,101.585 169.572,101.1 184.41,105.673 				"/>
			</g>
			<g>
				<polygon fill="#03737E" points="155.979,131.447 141.141,126.874 129.052,110.024 143.889,114.597 				"/>
			</g>
			<g>
				<polygon fill="#048A98" points="140.655,106.941 125.817,102.368 148.627,101.707 163.465,106.28 				"/>
			</g>
			<g>
				<polygon fill="#03737E" points="140.649,114.691 125.812,110.118 125.817,102.368 140.655,106.941 				"/>
			</g>
			<g>
				<polygon fill="#05CFE3" points="184.41,105.673 184.404,113.423 181.267,113.514 169.412,131.058 155.979,131.447 
					143.889,114.597 140.649,114.691 140.655,106.941 163.465,106.28 163.459,114.03 159.858,114.134 165.223,123.35 
					170.894,113.814 167.662,113.908 167.667,106.158 				"/>
			</g>
		</g>
		<g enable-background="new    ">
			<g>
				<polygon fill="#048A98" points="123.379,120.781 108.541,116.208 120.711,115.855 135.548,120.429 				"/>
			</g>
			<g>
				<polygon fill="#03737E" points="123.377,123.621 108.539,119.048 108.541,116.208 123.379,120.781 				"/>
			</g>
			<g>
				<polygon fill="#03737E" points="123.388,108.051 108.55,103.478 108.552,100.638 123.39,105.211 				"/>
			</g>
			<g>
				<polygon fill="#048A98" points="112.84,123.926 98.002,119.354 108.539,119.048 123.377,123.621 				"/>
			</g>
			<g>
				<polygon fill="#048A98" points="112.849,110.945 98.011,106.372 107.173,106.107 122.011,110.68 				"/>
			</g>
			<g>
				<polygon fill="#03737E" points="91.287,133.018 76.449,128.444 76.456,119.978 91.293,124.551 				"/>
			</g>
			<g>
				<polygon fill="#048A98" points="91.293,124.551 76.456,119.978 80.057,119.874 94.895,124.446 				"/>
			</g>
			<g>
				<polygon fill="#03737E" points="94.895,124.446 80.057,119.874 80.07,101.464 94.908,106.037 				"/>
			</g>
			<g>
				<polygon fill="#05CFE3" points="135.566,96.392 135.558,107.698 123.388,108.051 123.39,105.211 112.853,105.517 
					112.849,110.945 122.011,110.68 122.005,117.874 112.844,118.139 112.84,123.926 123.377,123.621 123.379,120.781 
					135.548,120.429 135.541,131.735 91.287,133.018 91.293,124.551 94.895,124.446 94.908,106.037 91.238,106.143 91.244,97.676 
									"/>
			</g>
			<g>
				<polygon fill="#03737E" points="91.238,106.143 76.4,101.57 76.406,93.104 91.244,97.676 				"/>
			</g>
			<g>
				<polygon fill="#048A98" points="91.244,97.676 76.406,93.104 120.728,91.819 135.566,96.392 				"/>
			</g>
		</g>
		<g enable-background="new    ">
			<g enable-background="new    ">
				<defs>
					<path id="SVGID_25_" enable-background="new    " d="M878.435,101.809c-4.946-1.524-9.892-3.048-14.837-4.573
						c0.373,0.115,0.844,0.166,1.41,0.149c1.083-0.032,2.398-0.338,3.937-0.902l14.838,4.573c-1.538,0.564-2.854,0.871-3.937,0.902
						C879.279,101.975,878.809,101.924,878.435,101.809z"/>
				</defs>
				<clipPath id="SVGID_26_">
					<use xlink:href="#SVGID_25_"  overflow="visible"/>
				</clipPath>
				<g clip-path="url(#SVGID_26_)" enable-background="new    ">
					<path fill="#048997" d="M878.435,101.809l-14.837-4.573c0.373,0.115,0.844,0.166,1.41,0.149
						c0.224-0.007,0.457-0.025,0.701-0.055l14.838,4.573c-0.244,0.03-0.478,0.048-0.701,0.055
						C879.279,101.975,878.809,101.924,878.435,101.809"/>
					<path fill="#038592" d="M880.547,101.904l-14.838-4.573c0.936-0.115,2.015-0.4,3.235-0.848l14.838,4.573
						C882.562,101.504,881.482,101.789,880.547,101.904"/>
				</g>
			</g>
			<g>
				<polygon fill="#048A98" points="877.021,85.601 862.184,81.028 868.956,80.832 883.793,85.405 				"/>
			</g>
			<g enable-background="new    ">
				<defs>
					<path id="SVGID_27_" enable-background="new    " d="M866.439,110.367c-4.945-1.524-9.892-3.048-14.838-4.573
						c-0.045-0.014-0.091-0.028-0.136-0.043c-1.848-0.591-3.239-1.411-4.167-2.468l14.838,4.573
						c0.928,1.058,2.319,1.877,4.166,2.468C866.349,110.338,866.395,110.353,866.439,110.367z"/>
				</defs>
				<clipPath id="SVGID_28_">
					<use xlink:href="#SVGID_27_"  overflow="visible"/>
				</clipPath>
				<g clip-path="url(#SVGID_28_)" enable-background="new    ">
					<path fill="#037783" d="M866.439,110.367l-14.837-4.573c-0.046-0.014-0.092-0.028-0.137-0.043
						c-1.848-0.591-3.239-1.411-4.167-2.468l14.838,4.573c0.928,1.058,2.319,1.877,4.166,2.468
						C866.349,110.338,866.395,110.353,866.439,110.367"/>
				</g>
			</g>
			<g enable-background="new    ">
				<defs>
					<path id="SVGID_29_" enable-background="new    " d="M862.137,107.855l-14.838-4.573c-0.515-0.612-0.893-1.174-1.133-1.687
						l14.838,4.573C861.244,106.682,861.622,107.244,862.137,107.855z"/>
				</defs>
				<clipPath id="SVGID_30_">
					<use xlink:href="#SVGID_29_"  overflow="visible"/>
				</clipPath>
				<g clip-path="url(#SVGID_30_)" enable-background="new    ">
					<path fill="#037783" d="M862.137,107.855l-14.838-4.573c-0.515-0.612-0.893-1.174-1.133-1.687l14.838,4.573
						C861.244,106.682,861.622,107.244,862.137,107.855"/>
				</g>
			</g>
			<g enable-background="new    ">
				<defs>
					<path id="SVGID_31_" enable-background="new    " d="M861.004,106.169l-14.838-4.573c-0.249-0.503-0.421-1.081-0.531-1.723
						l14.838,4.573C860.583,105.088,860.755,105.665,861.004,106.169z"/>
				</defs>
				<clipPath id="SVGID_32_">
					<use xlink:href="#SVGID_31_"  overflow="visible"/>
				</clipPath>
				<g clip-path="url(#SVGID_32_)" enable-background="new    ">
					<path fill="#037783" d="M861.004,106.169l-14.838-4.573c-0.249-0.503-0.421-1.081-0.531-1.723l14.838,4.573
						C860.583,105.088,860.755,105.665,861.004,106.169"/>
				</g>
			</g>
			<g enable-background="new    ">
				<defs>
					<path id="SVGID_33_" enable-background="new    " d="M860.473,104.446l-14.838-4.573c-0.162-1.115-0.238-3.271-0.236-6.47
						l14.838,4.573C860.234,101.174,860.311,103.331,860.473,104.446z"/>
				</defs>
				<clipPath id="SVGID_34_">
					<use xlink:href="#SVGID_33_"  overflow="visible"/>
				</clipPath>
				<g clip-path="url(#SVGID_34_)" enable-background="new    ">
					<path fill="#037783" d="M860.473,104.446l-14.838-4.573c-0.162-1.115-0.238-3.271-0.236-6.47l14.838,4.573
						C860.234,101.174,860.311,103.331,860.473,104.446"/>
				</g>
			</g>
			<g>
				<polygon fill="#03737E" points="860.236,97.976 845.398,93.403 845.401,89.264 860.239,93.837 				"/>
			</g>
			<g>
				<polygon fill="#048694" points="860.248,82.307 845.41,77.734 862.19,71.174 877.028,75.747 				"/>
			</g>
			<g>
				<polygon fill="#03737E" points="860.245,86.087 845.407,81.515 845.41,77.734 860.248,82.307 				"/>
			</g>
			<g>
				<polygon fill="#03737E" points="856.105,93.957 841.268,89.384 841.273,81.634 856.111,86.207 				"/>
			</g>
			<g>
				<path fill="#05CFE3" d="M877.028,75.747l-0.007,9.854l6.771-0.196l-0.005,7.75l-6.772,0.196l-0.004,4.775
					c-0.001,1.559,0.188,2.592,0.565,3.11c0.352,0.509,1.108,0.756,2.269,0.723c1.083-0.031,2.398-0.338,3.937-0.902l-0.006,7.57
					c-1.091,0.587-2.673,1.125-4.736,1.607c-2.183,0.502-4.271,0.787-6.274,0.845c-2.509,0.073-4.667-0.178-6.463-0.754
					c-1.847-0.591-3.238-1.411-4.166-2.468c-0.515-0.612-0.893-1.174-1.133-1.687c-0.249-0.504-0.421-1.081-0.531-1.723
					c-0.162-1.115-0.238-3.272-0.236-6.471l0.003-4.139l-4.134,0.12l0.006-7.75l4.134-0.12l0.003-3.781L877.028,75.747z"/>
			</g>
			<g>
				<polygon fill="#048A98" points="856.111,86.207 841.273,81.634 845.407,81.515 860.245,86.087 				"/>
			</g>
		</g>
		<g enable-background="new    ">
			<g>
				<polygon fill="#048A98" points="849.231,103.303 834.394,98.729 838.227,98.619 853.064,103.191 				"/>
			</g>
			<g>
				<polygon fill="#03737E" points="832.458,111.538 817.62,106.965 817.628,96.008 832.466,100.581 				"/>
			</g>
			<g enable-background="new    ">
				<defs>
					<path id="SVGID_35_" enable-background="new    " d="M828.067,82.417c4.946,1.524,9.892,3.048,14.838,4.573
						c-1.697-0.523-3.729-0.749-6.099-0.681l-14.837-4.573C824.338,81.668,826.37,81.895,828.067,82.417z"/>
				</defs>
				<clipPath id="SVGID_36_">
					<use xlink:href="#SVGID_35_"  overflow="visible"/>
				</clipPath>
				<g clip-path="url(#SVGID_36_)" enable-background="new    ">
					<path fill="#048997" d="M836.807,86.31l-14.837-4.573c2.368-0.069,4.4,0.158,6.098,0.681l14.838,4.573
						C841.208,86.467,839.176,86.241,836.807,86.31"/>
				</g>
			</g>
			<g enable-background="new    ">
				<defs>
					<path id="SVGID_37_" enable-background="new    " d="M832.466,100.581l-14.838-4.573c0.002-2.383-0.264-3.952-0.796-4.698
						l14.838,4.573C832.202,96.629,832.468,98.198,832.466,100.581z"/>
				</defs>
				<clipPath id="SVGID_38_">
					<use xlink:href="#SVGID_37_"  overflow="visible"/>
				</clipPath>
				<g clip-path="url(#SVGID_38_)" enable-background="new    ">
					<path fill="#037783" d="M832.466,100.581l-14.838-4.573c0.002-2.383-0.264-3.952-0.796-4.698l14.838,4.573
						C832.202,96.629,832.468,98.198,832.466,100.581"/>
				</g>
			</g>
			<g enable-background="new    ">
				<defs>
					<path id="SVGID_39_" enable-background="new    " d="M815.561,90.506c0.742,0.229,1.484,0.458,2.227,0.686
						c4.204,1.296,8.407,2.591,12.611,3.887c0.555,0.171,0.979,0.439,1.271,0.804l-14.838-4.573
						C816.539,90.945,816.115,90.677,815.561,90.506z"/>
				</defs>
				<clipPath id="SVGID_40_">
					<use xlink:href="#SVGID_39_"  overflow="visible"/>
				</clipPath>
				<g clip-path="url(#SVGID_40_)" enable-background="new    ">
					<path fill="#037783" d="M831.67,95.883l-14.838-4.573c-0.293-0.365-0.717-0.634-1.271-0.805l14.838,4.573
						C830.953,95.25,831.377,95.519,831.67,95.883"/>
				</g>
			</g>
			<g>
				<polygon fill="#048A98" points="823.56,104.046 808.722,99.474 813.389,99.338 828.227,103.911 				"/>
			</g>
			<g enable-background="new    ">
				<defs>
					<path id="SVGID_41_" enable-background="new    " d="M823.569,90.277l-14.838-4.573c4.11-2.511,8.528-3.831,13.238-3.967
						l14.837,4.573C832.098,86.446,827.679,87.766,823.569,90.277z"/>
				</defs>
				<clipPath id="SVGID_42_">
					<use xlink:href="#SVGID_41_"  overflow="visible"/>
				</clipPath>
				<g clip-path="url(#SVGID_42_)" enable-background="new    ">
					<path fill="#03808D" d="M823.569,90.277l-14.838-4.573c1.391-0.85,2.815-1.563,4.275-2.14l14.838,4.573
						C826.385,88.715,824.959,89.428,823.569,90.277"/>
					<path fill="#038592" d="M827.845,88.138l-14.838-4.573c2.079-0.821,4.228-1.367,6.444-1.639l14.838,4.573
						C832.072,86.77,829.923,87.316,827.845,88.138"/>
					<path fill="#048997" d="M834.289,86.499l-14.838-4.573c0.83-0.102,1.669-0.165,2.519-0.189l14.837,4.573
						C835.958,86.334,835.119,86.397,834.289,86.499"/>
				</g>
			</g>
			<g>
				<polygon fill="#03737E" points="806.782,104.533 791.945,99.96 791.951,90.813 806.789,95.386 				"/>
			</g>
			<g>
				<polygon fill="#048A98" points="802.614,104.653 787.776,100.081 791.945,99.96 806.782,104.533 				"/>
			</g>
			<g>
				<polygon fill="#03737E" points="802.608,112.403 787.771,107.83 787.776,100.081 802.614,104.653 				"/>
			</g>
			<g>
				<polygon fill="#048A98" points="802.626,87.757 787.788,83.184 808.734,82.577 823.571,87.15 				"/>
			</g>
			<g>
				<path fill="#05CFE3" d="M836.807,86.31c4.135-0.12,7.246,0.659,9.333,2.346c2.069,1.687,3.099,4.461,3.097,8.322l-0.005,6.325
					l3.833-0.111l-0.006,7.75l-20.601,0.597l0.008-10.957c0.002-2.383-0.264-3.952-0.796-4.698
					c-0.584-0.727-1.684-1.071-3.309-1.024c-1.486,0.043-3.085,0.519-4.796,1.438l-0.006,7.75l4.667-0.135l-0.006,7.75
					l-25.612,0.742l0.006-7.75l4.168-0.121l0.007-9.147l-4.169,0.121l0.006-7.75l20.945-0.607l-0.002,3.127
					C827.679,87.766,832.098,86.446,836.807,86.31z"/>
			</g>
			<g>
				<polygon fill="#03737E" points="802.62,95.507 787.783,90.934 787.788,83.184 802.626,87.757 				"/>
			</g>
		</g>
		<g enable-background="new    ">
			<g>
				<polygon fill="#048A98" points="782.675,105.178 767.837,100.604 781.674,101.503 796.512,106.076 				"/>
			</g>
			<g enable-background="new    ">
				<defs>
					<path id="SVGID_43_" enable-background="new    " d="M777.672,108.063l-14.838-4.573c2.312-0.067,3.979-1.029,5.003-2.886
						l14.838,4.573C781.651,107.035,779.983,107.997,777.672,108.063z"/>
				</defs>
				<clipPath id="SVGID_44_">
					<use xlink:href="#SVGID_43_"  overflow="visible"/>
				</clipPath>
				<g clip-path="url(#SVGID_44_)" enable-background="new    ">
					<path fill="#048997" d="M777.672,108.063l-14.838-4.573c0.255-0.007,0.503-0.026,0.742-0.055l14.838,4.573
						C778.174,108.038,777.927,108.056,777.672,108.063"/>
					<path fill="#038592" d="M778.414,108.009l-14.838-4.573c0.559-0.068,1.074-0.195,1.548-0.382l14.838,4.573
						C779.488,107.813,778.973,107.94,778.414,108.009"/>
					<path fill="#03808D" d="M779.962,107.626l-14.838-4.573c0.353-0.139,0.681-0.311,0.985-0.516l14.838,4.573
						C780.643,107.315,780.313,107.487,779.962,107.626"/>
					<path fill="#037C88" d="M780.947,107.11l-14.838-4.573c0.316-0.213,0.608-0.461,0.874-0.745l14.838,4.573
						C781.556,106.649,781.264,106.898,780.947,107.11"/>
					<path fill="#037783" d="M781.821,106.366l-14.838-4.573c0.322-0.344,0.606-0.74,0.854-1.188l14.838,4.573
						C782.428,105.626,782.143,106.022,781.821,106.366"/>
				</g>
			</g>
			<g enable-background="new    ">
				<defs>
					<path id="SVGID_45_" enable-background="new    " d="M775.178,107.773c-4.945-1.524-9.892-3.049-14.837-4.573
						c0.717,0.221,1.548,0.318,2.493,0.291l14.838,4.573C776.727,108.091,775.896,107.994,775.178,107.773z"/>
				</defs>
				<clipPath id="SVGID_46_">
					<use xlink:href="#SVGID_45_"  overflow="visible"/>
				</clipPath>
				<g clip-path="url(#SVGID_46_)" enable-background="new    ">
					<path fill="#048997" d="M775.178,107.773L760.34,103.2c0.718,0.221,1.549,0.318,2.494,0.291l14.838,4.573
						C776.727,108.091,775.896,107.994,775.178,107.773"/>
				</g>
			</g>
			<g enable-background="new    ">
				<defs>
					<path id="SVGID_47_" enable-background="new    " d="M763.671,89.065c4.945,1.524,9.892,3.049,14.837,4.573
						c0.643,0.198,1.2,0.521,1.674,0.968c0.894,0.852,1.331,1.95,1.33,3.285c0,0.072-0.018,0.359-0.07,0.871l-14.837-4.573
						c0.052-0.512,0.069-0.799,0.069-0.871c0.001-1.334-0.437-2.433-1.329-3.285C764.87,89.587,764.313,89.263,763.671,89.065z"/>
				</defs>
				<clipPath id="SVGID_48_">
					<use xlink:href="#SVGID_47_"  overflow="visible"/>
				</clipPath>
				<g clip-path="url(#SVGID_48_)" enable-background="new    ">
					<path fill="#037783" d="M781.441,98.763l-14.837-4.573c0.052-0.512,0.069-0.799,0.069-0.871
						c0.001-1.334-0.437-2.433-1.329-3.285c-0.475-0.447-1.032-0.771-1.674-0.969l14.837,4.573c0.643,0.198,1.2,0.521,1.674,0.968
						c0.894,0.852,1.331,1.95,1.33,3.285C781.512,97.964,781.494,98.251,781.441,98.763"/>
				</g>
			</g>
			<g>
				<polygon fill="#048A98" points="772.014,99.036 757.176,94.463 766.604,94.19 781.441,98.763 				"/>
			</g>
			<g enable-background="new    ">
				<defs>
					<path id="SVGID_49_" enable-background="new    " d="M765.239,112.457l-14.838-4.573c-1.498-0.462-2.824-1.039-3.978-1.732
						c-3.796-2.255-5.693-5.309-5.69-9.152c0.003-3.763,1.878-6.953,5.637-9.57c3.714-2.607,8.751-4.007,15.111-4.192
						c4.017-0.116,7.546,0.292,10.584,1.229l14.838,4.573c-3.038-0.937-6.567-1.345-10.585-1.229
						c-6.359,0.184-11.396,1.584-15.11,4.191c-3.759,2.617-5.635,5.807-5.637,9.57c-0.003,3.843,1.895,6.897,5.69,9.152
						C762.415,111.418,763.741,111.995,765.239,112.457z"/>
				</defs>
				<clipPath id="SVGID_50_">
					<use xlink:href="#SVGID_49_"  overflow="visible"/>
				</clipPath>
				<g clip-path="url(#SVGID_50_)" enable-background="new    ">
					<path fill="#037783" d="M765.239,112.457l-14.838-4.573c-1.498-0.462-2.824-1.039-3.978-1.732
						c-3.796-2.255-5.693-5.309-5.69-9.152c0.002-2.747,1.002-5.188,3.004-7.325l14.837,4.573c-2.001,2.136-3.001,4.578-3.003,7.325
						c-0.003,3.843,1.895,6.897,5.69,9.152C762.415,111.418,763.741,111.995,765.239,112.457"/>
					<path fill="#037C88" d="M758.574,94.249l-14.837-4.573c0.74-0.79,1.618-1.539,2.633-2.245c0.101-0.071,0.201-0.14,0.304-0.209
						l14.838,4.573c-0.103,0.069-0.204,0.139-0.304,0.209C760.192,92.71,759.315,93.458,758.574,94.249"/>
					<path fill="#03808D" d="M761.512,91.794l-14.838-4.573c1.145-0.769,2.409-1.426,3.795-1.974l14.838,4.573
						C763.921,90.368,762.656,91.026,761.512,91.794"/>
					<path fill="#038592" d="M765.307,89.821l-14.838-4.573c2.087-0.824,4.448-1.398,7.083-1.72l14.838,4.573
						C769.754,88.423,767.394,88.997,765.307,89.821"/>
					<path fill="#048997" d="M772.39,88.101l-14.838-4.573c1.248-0.153,2.558-0.249,3.93-0.289
						c4.017-0.116,7.546,0.292,10.584,1.229l14.838,4.573c-3.038-0.937-6.567-1.345-10.585-1.229
						C774.947,87.852,773.638,87.948,772.39,88.101"/>
				</g>
			</g>
			<g>
				<path fill="#05CFE3" d="M777.672,108.063c2.312-0.067,3.979-1.029,5.003-2.886l13.837,0.898c-0.619,1.12-1.488,2.13-2.598,3.032
					c-1.118,0.901-2.477,1.702-4.075,2.394c-3.224,1.41-7.084,2.185-11.57,2.315c-7.538,0.219-13.209-0.809-17.007-3.09
					c-3.796-2.255-5.693-5.309-5.69-9.152c0.002-3.763,1.878-6.953,5.637-9.57c3.714-2.607,8.751-4.007,15.11-4.191
					c6.111-0.177,11.096,0.861,14.936,3.124c3.78,2.237,5.788,5.763,6.025,10.566l-25.475,0.738
					C771.871,106.234,773.829,108.175,777.672,108.063z M773.177,94.936c-0.8,0.991-1.196,2.185-1.197,3.591
					c0,0.188,0.009,0.358,0.034,0.509l9.428-0.273c0.053-0.512,0.07-0.799,0.07-0.871c0.001-1.335-0.437-2.433-1.33-3.285
					c-0.885-0.834-2.062-1.239-3.531-1.197C775.138,93.454,773.978,93.962,773.177,94.936"/>
			</g>
		</g>
		<g enable-background="new    ">
			<g>
				<polygon fill="#048A98" points="746.561,106.278 731.723,101.705 735.994,101.581 750.832,106.154 				"/>
			</g>
			<g enable-background="new    ">
				<defs>
					<path id="SVGID_51_" enable-background="new    " d="M725.233,85.333l14.838,4.573c-1.567-0.482-3.422-0.693-5.565-0.631
						l-14.838-4.573C721.812,84.639,723.667,84.85,725.233,85.333z"/>
				</defs>
				<clipPath id="SVGID_52_">
					<use xlink:href="#SVGID_51_"  overflow="visible"/>
				</clipPath>
				<g clip-path="url(#SVGID_52_)" enable-background="new    ">
					<path fill="#048997" d="M734.506,89.274l-14.838-4.573c2.144-0.063,3.999,0.148,5.565,0.631l14.838,4.573
						C738.504,89.423,736.649,89.212,734.506,89.274"/>
				</g>
			</g>
			<g>
				<polygon fill="#03737E" points="729.787,114.514 714.949,109.94 714.956,99.342 729.794,103.915 				"/>
			</g>
			<g enable-background="new    ">
				<defs>
					<path id="SVGID_53_" enable-background="new    " d="M712.949,93.48l14.838,4.573c0.505,0.156,0.896,0.401,1.177,0.735
						c0.55,0.656,0.832,2.368,0.83,5.127l-14.838-4.573c0.003-2.76-0.28-4.471-0.829-5.127
						C713.846,93.88,713.454,93.636,712.949,93.48z"/>
				</defs>
				<clipPath id="SVGID_54_">
					<use xlink:href="#SVGID_53_"  overflow="visible"/>
				</clipPath>
				<g clip-path="url(#SVGID_54_)" enable-background="new    ">
					<path fill="#037783" d="M729.794,103.915l-14.838-4.573c0.003-2.76-0.28-4.471-0.829-5.127
						c-0.281-0.334-0.673-0.579-1.178-0.735l14.838,4.573c0.505,0.156,0.896,0.401,1.177,0.735
						C729.514,99.444,729.796,101.155,729.794,103.915"/>
				</g>
			</g>
			<g>
				<polygon fill="#048A98" points="720.451,107.035 705.613,102.462 710.185,102.329 725.022,106.902 				"/>
			</g>
			<g enable-background="new    ">
				<defs>
					<path id="SVGID_55_" enable-background="new    " d="M719.324,94.543l-14.837-4.573c4.961-3.36,10.024-5.119,15.181-5.269
						l14.838,4.573C729.35,89.424,724.286,91.183,719.324,94.543z"/>
				</defs>
				<clipPath id="SVGID_56_">
					<use xlink:href="#SVGID_55_"  overflow="visible"/>
				</clipPath>
				<g clip-path="url(#SVGID_56_)" enable-background="new    ">
					<path fill="#037C88" d="M719.324,94.543l-14.837-4.573c0.041-0.028,0.082-0.056,0.123-0.083l14.838,4.573
						C719.407,94.488,719.365,94.515,719.324,94.543"/>
					<path fill="#03808D" d="M719.448,94.46l-14.838-4.573c2.073-1.392,4.163-2.505,6.271-3.338l14.838,4.573
						C723.611,91.955,721.521,93.068,719.448,94.46"/>
					<path fill="#038592" d="M725.72,91.122l-14.838-4.573c2.146-0.849,4.31-1.407,6.491-1.674l14.838,4.573
						C730.029,89.715,727.865,90.273,725.72,91.122"/>
					<path fill="#048997" d="M732.211,89.448l-14.838-4.573c0.763-0.093,1.527-0.151,2.295-0.173l14.838,4.573
						C733.738,89.297,732.974,89.354,732.211,89.448"/>
				</g>
			</g>
			<g>
				<polygon fill="#03737E" points="703.677,115.27 688.839,110.697 688.847,100.152 703.684,104.726 				"/>
			</g>
			<g enable-background="new    ">
				<defs>
					<path id="SVGID_57_" enable-background="new    " d="M686.942,94.227L701.78,98.8c0.527,0.163,0.918,0.425,1.169,0.787
						c0.489,0.721,0.736,2.424,0.734,5.139l-14.837-4.573c0.002-2.714-0.246-4.418-0.735-5.139
						C687.86,94.652,687.47,94.39,686.942,94.227z"/>
				</defs>
				<clipPath id="SVGID_58_">
					<use xlink:href="#SVGID_57_"  overflow="visible"/>
				</clipPath>
				<g clip-path="url(#SVGID_58_)" enable-background="new    ">
					<path fill="#037783" d="M703.684,104.726l-14.837-4.573c0.002-2.714-0.246-4.418-0.735-5.139
						c-0.251-0.362-0.642-0.624-1.169-0.787L701.78,98.8c0.527,0.163,0.918,0.425,1.169,0.787
						C703.438,100.307,703.686,102.011,703.684,104.726"/>
				</g>
			</g>
			<g>
				<polygon fill="#048A98" points="694.58,107.784 679.742,103.211 684.271,103.08 699.109,107.653 				"/>
			</g>
			<g enable-background="new    ">
				<defs>
					<path id="SVGID_59_" enable-background="new    " d="M699.374,86.128l14.837,4.573c-1.657-0.511-3.63-0.733-5.918-0.667
						c-2.355,0.068-4.821,0.525-7.4,1.361c-2.605,0.837-4.702,1.793-6.303,2.871l-14.838-4.573c1.601-1.077,3.697-2.033,6.303-2.87
						c2.579-0.836,5.045-1.293,7.4-1.361C695.743,85.395,697.716,85.618,699.374,86.128z"/>
				</defs>
				<clipPath id="SVGID_60_">
					<use xlink:href="#SVGID_59_"  overflow="visible"/>
				</clipPath>
				<g clip-path="url(#SVGID_60_)" enable-background="new    ">
					<polyline fill="#037C88" points="694.59,94.266 679.752,89.692 679.764,89.685 694.602,94.257 694.59,94.266 					"/>
					<path fill="#03808D" d="M694.602,94.257l-14.838-4.573c1.116-0.75,2.473-1.44,4.074-2.073l14.838,4.573
						C697.074,92.817,695.718,93.508,694.602,94.257"/>
					<path fill="#038592" d="M698.676,92.184l-14.838-4.573c0.693-0.274,1.432-0.537,2.217-0.789c1.818-0.589,3.581-0.99,5.288-1.2
						l14.838,4.573c-1.707,0.209-3.47,0.61-5.288,1.2C700.107,91.647,699.369,91.91,698.676,92.184"/>
					<path fill="#048997" d="M706.181,90.195l-14.838-4.573c0.714-0.087,1.418-0.141,2.112-0.162
						c2.288-0.066,4.261,0.157,5.919,0.667l14.837,4.573c-1.657-0.511-3.63-0.733-5.918-0.667
						C707.599,90.054,706.895,90.108,706.181,90.195"/>
				</g>
			</g>
			<g>
				<polygon fill="#03737E" points="677.77,108.271 662.932,103.699 662.938,94.552 677.776,99.125 				"/>
			</g>
			<g>
				<polygon fill="#048A98" points="673.772,108.387 658.935,103.814 662.932,103.699 677.77,108.271 				"/>
			</g>
			<g>
				<polygon fill="#03737E" points="673.768,116.137 658.93,111.564 658.935,103.814 673.772,108.387 				"/>
			</g>
			<g>
				<polygon fill="#048A98" points="673.717,91.493 658.879,86.92 679.755,86.315 694.593,90.888 				"/>
			</g>
			<g>
				<path fill="#05CFE3" d="M734.506,89.274c2.819-0.082,5.14,0.308,6.961,1.169c1.873,0.877,3.188,2.076,3.934,3.595
					c0.781,1.572,1.166,3.792,1.164,6.677l-0.004,5.563l4.271-0.124l-0.006,7.75l-21.039,0.61l0.007-10.599
					c0.002-2.76-0.28-4.471-0.83-5.127c-0.558-0.665-1.555-0.976-3.007-0.934c-1.822,0.053-3.652,0.634-5.501,1.736l-0.005,7.445
					l4.571-0.132l-0.006,7.75l-21.34,0.618l0.007-10.544c0.002-2.715-0.245-4.418-0.734-5.139c-0.481-0.694-1.479-1.023-2.965-0.98
					c-1.71,0.05-3.516,0.63-5.398,1.733l-0.006,7.444l4.529-0.131l-0.005,7.75l-25.337,0.734l0.005-7.75l3.997-0.116l0.007-9.147
					l-4.065,0.118l0.006-7.75l20.876-0.605l-0.003,3.378c1.601-1.077,3.697-2.033,6.303-2.871c2.579-0.836,5.045-1.292,7.4-1.361
					c5.492-0.159,9.169,1.347,11.031,4.509C724.286,91.183,729.35,89.424,734.506,89.274z"/>
			</g>
			<g>
				<polygon fill="#03737E" points="673.711,99.243 658.873,94.669 658.879,86.92 673.717,91.493 				"/>
			</g>
		</g>
		<g enable-background="new    ">
			<g>
				<polygon fill="#048A98" points="653.163,108.931 638.325,104.358 652.162,105.256 666.999,109.829 				"/>
			</g>
			<g enable-background="new    ">
				<defs>
					<path id="SVGID_61_" enable-background="new    " d="M648.159,111.817l-14.837-4.573c2.312-0.067,3.979-1.029,5.003-2.886
						l14.838,4.573C652.14,110.788,650.472,111.75,648.159,111.817z"/>
				</defs>
				<clipPath id="SVGID_62_">
					<use xlink:href="#SVGID_61_"  overflow="visible"/>
				</clipPath>
				<g clip-path="url(#SVGID_62_)" enable-background="new    ">
					<path fill="#048997" d="M648.159,111.817l-14.837-4.573c0.255-0.007,0.502-0.026,0.742-0.055l14.838,4.573
						C648.662,111.791,648.415,111.81,648.159,111.817"/>
					<path fill="#038592" d="M648.902,111.762l-14.838-4.573c0.559-0.068,1.074-0.196,1.548-0.382l14.838,4.573
						C649.977,111.566,649.461,111.694,648.902,111.762"/>
					<path fill="#03808D" d="M650.45,111.379l-14.838-4.573c0.352-0.139,0.681-0.311,0.985-0.516l14.838,4.573
						C651.131,111.068,650.802,111.24,650.45,111.379"/>
					<path fill="#037C88" d="M651.436,110.864l-14.838-4.573c0.316-0.213,0.608-0.461,0.874-0.745l14.838,4.573
						C652.043,110.403,651.752,110.651,651.436,110.864"/>
					<path fill="#037783" d="M652.31,110.119l-14.838-4.573c0.321-0.344,0.606-0.74,0.854-1.188l14.838,4.573
						C652.916,109.379,652.631,109.775,652.31,110.119"/>
				</g>
			</g>
			<g enable-background="new    ">
				<defs>
					<path id="SVGID_63_" enable-background="new    " d="M645.662,111.526l-14.838-4.573c0.718,0.221,1.55,0.318,2.498,0.291
						l14.837,4.573C647.212,111.844,646.38,111.748,645.662,111.526z"/>
				</defs>
				<clipPath id="SVGID_64_">
					<use xlink:href="#SVGID_63_"  overflow="visible"/>
				</clipPath>
				<g clip-path="url(#SVGID_64_)" enable-background="new    ">
					<path fill="#048997" d="M645.662,111.526l-14.838-4.573c0.718,0.221,1.55,0.318,2.498,0.291l14.837,4.573
						C647.212,111.844,646.38,111.748,645.662,111.526"/>
				</g>
			</g>
			<g enable-background="new    ">
				<defs>
					<path id="SVGID_65_" enable-background="new    " d="M634.151,92.819l14.838,4.573c0.642,0.198,1.202,0.521,1.681,0.969
						c0.885,0.852,1.331,1.95,1.33,3.285c0,0.072-0.026,0.36-0.07,0.871l-14.838-4.573c0.044-0.512,0.07-0.799,0.07-0.871
						c0.001-1.334-0.445-2.433-1.33-3.285C635.354,93.34,634.793,93.017,634.151,92.819z"/>
				</defs>
				<clipPath id="SVGID_66_">
					<use xlink:href="#SVGID_65_"  overflow="visible"/>
				</clipPath>
				<g clip-path="url(#SVGID_66_)" enable-background="new    ">
					<path fill="#037783" d="M651.93,102.516l-14.838-4.573c0.044-0.512,0.07-0.799,0.07-0.871c0.001-1.334-0.445-2.433-1.33-3.285
						c-0.479-0.447-1.039-0.771-1.681-0.968l14.838,4.573c0.642,0.198,1.202,0.521,1.681,0.969c0.885,0.852,1.331,1.95,1.33,3.285
						C652,101.717,651.974,102.005,651.93,102.516"/>
				</g>
			</g>
			<g>
				<polygon fill="#048A98" points="642.493,102.79 627.655,98.217 637.092,97.943 651.93,102.516 				"/>
			</g>
			<g enable-background="new    ">
				<defs>
					<path id="SVGID_67_" enable-background="new    " d="M635.728,116.21l-14.838-4.573c-1.498-0.462-2.824-1.039-3.978-1.732
						c-3.796-2.255-5.693-5.309-5.691-9.152c0.003-3.763,1.879-6.953,5.637-9.57c3.715-2.607,8.753-4.007,15.111-4.191
						c4.018-0.116,7.543,0.292,10.581,1.229l14.838,4.573c-3.038-0.936-6.564-1.345-10.581-1.229
						c-6.358,0.185-11.396,1.584-15.111,4.192c-3.758,2.617-5.634,5.807-5.637,9.57c-0.002,3.843,1.896,6.897,5.691,9.152
						C632.903,115.171,634.229,115.749,635.728,116.21z"/>
				</defs>
				<clipPath id="SVGID_68_">
					<use xlink:href="#SVGID_67_"  overflow="visible"/>
				</clipPath>
				<g clip-path="url(#SVGID_68_)" enable-background="new    ">
					<path fill="#037783" d="M635.728,116.21l-14.838-4.573c-1.498-0.462-2.824-1.039-3.978-1.732
						c-3.796-2.255-5.693-5.309-5.691-9.152c0.002-2.747,1.003-5.188,3.004-7.325l14.838,4.573
						c-2.002,2.137-3.002,4.578-3.004,7.325c-0.002,3.843,1.896,6.897,5.691,9.152C632.903,115.171,634.229,115.749,635.728,116.21"
						/>
					<path fill="#037C88" d="M629.063,98.002l-14.838-4.573c0.741-0.79,1.618-1.539,2.633-2.246c0.101-0.07,0.202-0.14,0.305-0.208
						L632,95.548c-0.103,0.069-0.204,0.139-0.305,0.209C630.681,96.463,629.804,97.212,629.063,98.002"/>
					<path fill="#03808D" d="M632,95.548l-14.838-4.573c1.144-0.768,2.409-1.426,3.795-1.974l14.838,4.573
						C634.409,94.122,633.144,94.78,632,95.548"/>
					<path fill="#038592" d="M635.795,93.574l-14.838-4.573c2.087-0.825,4.448-1.398,7.083-1.721l14.838,4.573
						C640.243,92.176,637.882,92.75,635.795,93.574"/>
					<path fill="#048997" d="M642.878,91.854l-14.838-4.573c1.248-0.153,2.558-0.249,3.929-0.289
						c4.018-0.116,7.543,0.292,10.581,1.229l14.838,4.573c-3.038-0.936-6.564-1.345-10.581-1.229
						C645.436,91.605,644.126,91.701,642.878,91.854"/>
				</g>
			</g>
			<g>
				<path fill="#05CFE3" d="M648.159,111.817c2.313-0.067,3.98-1.029,5.004-2.886l13.836,0.898c-0.628,1.12-1.487,2.13-2.605,3.032
					c-1.109,0.901-2.468,1.702-4.066,2.393c-3.225,1.411-7.084,2.186-11.57,2.315c-7.538,0.219-13.209-0.809-17.007-3.091
					c-3.796-2.255-5.693-5.309-5.691-9.152c0.003-3.763,1.879-6.953,5.637-9.57c3.715-2.607,8.753-4.007,15.111-4.192
					c6.111-0.177,11.087,0.861,14.936,3.124c3.78,2.238,5.788,5.763,6.025,10.567l-25.475,0.738
					C642.359,109.987,644.309,111.929,648.159,111.817z M643.666,98.688c-0.8,0.991-1.206,2.186-1.207,3.592
					c0,0.188,0.018,0.358,0.034,0.509l9.437-0.273c0.044-0.511,0.07-0.799,0.07-0.871c0.001-1.334-0.445-2.433-1.33-3.285
					c-0.894-0.834-2.07-1.239-3.531-1.197C645.626,97.207,644.466,97.716,643.666,98.688"/>
			</g>
		</g>
		<g enable-background="new    ">
			<g>
				<polygon fill="#048A98" points="600.422,93.617 585.584,89.044 606.323,88.443 621.161,93.016 				"/>
			</g>
			<g>
				<polygon fill="#03737E" points="600.421,95.194 585.583,90.621 585.584,89.044 600.422,93.617 				"/>
			</g>
			<g enable-background="new    ">
				<defs>
					<path id="SVGID_69_" enable-background="new    " d="M582.1,96.285c4.946,1.524,9.892,3.048,14.838,4.573
						c0.775,0.239,1.445,0.635,2.009,1.188c1.021,1.001,1.536,2.33,1.535,3.996c-0.001,1.523-0.483,2.8-1.438,3.822l-14.837-4.573
						c0.954-1.022,1.437-2.299,1.438-3.823c0.001-1.666-0.514-2.995-1.535-3.996C583.545,96.92,582.875,96.523,582.1,96.285z"/>
				</defs>
				<clipPath id="SVGID_70_">
					<use xlink:href="#SVGID_69_"  overflow="visible"/>
				</clipPath>
				<g clip-path="url(#SVGID_70_)" enable-background="new    ">
					<path fill="#037783" d="M599.043,109.863l-14.837-4.573c0.954-1.022,1.437-2.299,1.438-3.823
						c0.001-1.666-0.514-2.995-1.535-3.996c-0.563-0.552-1.233-0.949-2.009-1.188l14.838,4.573c0.775,0.239,1.445,0.635,2.009,1.188
						c1.021,1.001,1.536,2.33,1.535,3.996C600.48,107.564,599.998,108.841,599.043,109.863"/>
				</g>
			</g>
			<g enable-background="new    ">
				<defs>
					<path id="SVGID_71_" enable-background="new    " d="M592.32,111.259l-14.838-4.573c0.688,0.212,1.474,0.306,2.356,0.281
						c1.951-0.057,3.412-0.619,4.367-1.676l14.837,4.573c-0.954,1.058-2.415,1.62-4.366,1.676
						C593.794,111.565,593.009,111.471,592.32,111.259z"/>
				</defs>
				<clipPath id="SVGID_72_">
					<use xlink:href="#SVGID_71_"  overflow="visible"/>
				</clipPath>
				<g clip-path="url(#SVGID_72_)" enable-background="new    ">
					<path fill="#048997" d="M592.32,111.259l-14.838-4.573c0.688,0.212,1.474,0.306,2.356,0.281
						c0.314-0.009,0.616-0.032,0.905-0.067l14.838,4.573c-0.289,0.036-0.591,0.058-0.905,0.067
						C593.794,111.565,593.009,111.471,592.32,111.259"/>
					<path fill="#038592" d="M595.582,111.473l-14.838-4.573c0.628-0.077,1.195-0.215,1.701-0.416l14.838,4.573
						C596.777,111.257,596.21,111.396,595.582,111.473"/>
					<path fill="#03808D" d="M597.283,111.058l-14.838-4.573c0.347-0.137,0.664-0.302,0.952-0.496l14.838,4.573
						C597.947,110.755,597.629,110.921,597.283,111.058"/>
					<path fill="#037C88" d="M598.235,110.562l-14.838-4.573c0.278-0.187,0.53-0.4,0.755-0.641l14.838,4.573
						C598.766,110.161,598.514,110.375,598.235,110.562"/>
					<path fill="#037783" d="M598.99,109.921l-14.838-4.573c0.019-0.019,0.036-0.038,0.054-0.058l14.837,4.573
						C599.025,109.883,599.008,109.902,598.99,109.921"/>
				</g>
			</g>
			<g enable-background="new    ">
				<defs>
					<path id="SVGID_73_" enable-background="new    " d="M579.328,121.74l-14.838-4.573c2.604,0.758,6.093,1.069,10.468,0.942
						c2.888-0.083,5.148-0.463,6.772-1.137c1.643-0.657,2.7-1.404,3.165-2.251c0.447-0.846,0.672-2.026,0.673-3.549l14.838,4.573
						c-0.001,1.523-0.226,2.703-0.673,3.549c-0.465,0.847-1.522,1.594-3.165,2.251c-1.624,0.674-3.885,1.053-6.773,1.137
						C585.421,122.809,581.932,122.498,579.328,121.74z"/>
				</defs>
				<clipPath id="SVGID_74_">
					<use xlink:href="#SVGID_73_"  overflow="visible"/>
				</clipPath>
				<g clip-path="url(#SVGID_74_)" enable-background="new    ">
					<path fill="#048997" d="M579.328,121.74l-14.838-4.573c2.604,0.758,6.093,1.069,10.468,0.942c1.047-0.03,2.011-0.1,2.893-0.208
						l14.838,4.573c-0.882,0.108-1.847,0.177-2.894,0.207C585.421,122.809,581.932,122.498,579.328,121.74"/>
					<path fill="#038592" d="M592.688,122.475l-14.838-4.573c1.479-0.181,2.724-0.471,3.733-0.87l14.838,4.573
						C595.411,122.004,594.166,122.294,592.688,122.475"/>
					<path fill="#03808D" d="M596.422,121.605l-14.838-4.573c0.05-0.02,0.099-0.04,0.146-0.06c0.753-0.301,1.383-0.621,1.889-0.961
						l14.838,4.573c-0.506,0.339-1.136,0.66-1.889,0.96C596.521,121.565,596.471,121.585,596.422,121.605"/>
					<path fill="#037C88" d="M598.457,120.585l-14.838-4.573c0.333-0.224,0.612-0.456,0.838-0.696l14.838,4.573
						C599.069,120.129,598.79,120.361,598.457,120.585"/>
					<path fill="#037783" d="M599.295,119.888l-14.838-4.573c0.181-0.192,0.326-0.39,0.438-0.594
						c0.447-0.846,0.672-2.026,0.673-3.549l14.838,4.573c-0.001,1.523-0.226,2.703-0.673,3.549
						C599.621,119.498,599.476,119.696,599.295,119.888"/>
				</g>
			</g>
			<g>
				<polygon fill="#037A86" points="574.727,128.118 559.889,123.545 564.49,117.167 579.328,121.74 				"/>
			</g>
			<g enable-background="new    ">
				<defs>
					<path id="SVGID_75_" enable-background="new    " d="M581.025,117.01l-14.838-4.573c-1.46-0.45-2.812-1.051-4.056-1.804
						c-3.359-1.99-5.033-4.826-5.03-8.517c0.003-3.897,1.75-7.039,5.241-9.424c3.465-2.385,7.668-3.654,12.602-3.797
						c3.264-0.095,6.202,0.263,8.813,1.067l14.838,4.573c-2.61-0.804-5.55-1.162-8.813-1.067c-4.934,0.143-9.137,1.411-12.602,3.796
						c-3.491,2.385-5.238,5.527-5.241,9.424c-0.003,3.691,1.671,6.527,5.03,8.517C578.214,115.959,579.565,116.56,581.025,117.01z"
						/>
				</defs>
				<clipPath id="SVGID_76_">
					<use xlink:href="#SVGID_75_"  overflow="visible"/>
				</clipPath>
				<g clip-path="url(#SVGID_76_)" enable-background="new    ">
					<path fill="#037783" d="M581.025,117.01l-14.838-4.573c-1.46-0.45-2.812-1.051-4.056-1.804c-3.359-1.99-5.033-4.826-5.03-8.517
						c0.002-2.899,0.97-5.38,2.902-7.443l14.838,4.573c-1.933,2.063-2.9,4.544-2.902,7.443c-0.003,3.691,1.671,6.527,5.03,8.517
						C578.214,115.959,579.565,116.56,581.025,117.01"/>
					<path fill="#037C88" d="M574.842,99.246l-14.838-4.573c0.665-0.71,1.445-1.37,2.339-1.981c0.049-0.034,0.099-0.067,0.147-0.101
						l14.838,4.573c-0.049,0.033-0.099,0.067-0.147,0.101C576.286,97.876,575.507,98.536,574.842,99.246"/>
					<path fill="#03808D" d="M577.328,97.165l-14.838-4.573c1.207-0.815,2.503-1.496,3.886-2.042l14.838,4.573
						C579.83,95.668,578.535,96.35,577.328,97.165"/>
					<path fill="#038592" d="M581.214,95.122l-14.838-4.573c1.798-0.71,3.744-1.194,5.839-1.45l14.838,4.573
						C584.958,93.928,583.012,94.412,581.214,95.122"/>
					<path fill="#048997" d="M587.053,93.671l-14.838-4.573c0.883-0.108,1.793-0.176,2.729-0.203
						c3.264-0.095,6.202,0.263,8.813,1.067l14.838,4.573c-2.61-0.804-5.55-1.162-8.813-1.067
						C588.846,93.496,587.936,93.563,587.053,93.671"/>
				</g>
			</g>
			<g>
				<path fill="#05CFE3" d="M600.422,93.617l20.739-0.601l-0.006,7.75l-4.03,0.117l-0.01,13.51c-0.003,3.019-0.366,5.35-1.071,6.992
					c-0.74,1.652-2.048,3.079-3.939,4.28c-1.892,1.264-4.256,2.193-7.11,2.804c-2.819,0.638-6.566,1.023-11.232,1.159
					c-2.09,0.061-3.954,0.061-5.588,0.01c-1.632-0.051-3.506-0.167-5.62-0.348c-3.6-0.334-6.213-0.725-7.827-1.17l4.602-6.378
					c2.604,0.758,6.093,1.069,10.467,0.942c2.889-0.083,5.149-0.462,6.773-1.137c1.643-0.657,2.7-1.404,3.165-2.251
					c0.447-0.846,0.672-2.026,0.673-3.549c-3.362,1.379-7.101,2.132-11.235,2.252c-4.829,0.14-8.894-0.79-12.201-2.791
					c-3.359-1.99-5.033-4.826-5.03-8.517c0.003-3.897,1.75-7.039,5.241-9.424c3.465-2.385,7.668-3.654,12.602-3.796
					c4.048-0.118,7.597,0.46,10.639,1.725L600.422,93.617z M599.043,109.863c0.955-1.022,1.438-2.299,1.438-3.822
					c0.001-1.667-0.514-2.995-1.535-3.996c-1.039-1.018-2.44-1.506-4.193-1.455c-1.898,0.055-3.335,0.644-4.342,1.774
					c-0.997,1.113-1.506,2.471-1.507,4.057c-0.001,1.514,0.506,2.745,1.502,3.719c1.004,0.983,2.422,1.452,4.271,1.399
					C596.628,111.483,598.089,110.921,599.043,109.863"/>
			</g>
		</g>
		<g enable-background="new    ">
			<g>
				<polygon fill="#048A98" points="562.964,111.599 548.126,107.026 552.259,106.906 567.097,111.479 				"/>
			</g>
			<g>
				<polygon fill="#03737E" points="546.181,119.834 531.344,115.262 531.345,113.577 546.183,118.15 				"/>
			</g>
			<g>
				<polygon fill="#03737E" points="546.186,113.527 531.348,108.954 531.352,104.457 546.188,109.03 				"/>
			</g>
			<g enable-background="new    ">
				<defs>
					<path id="SVGID_77_" enable-background="new    " d="M530.627,104.208c4.945,1.524,9.892,3.048,14.838,4.573
						c0.243,0.075,0.485,0.158,0.724,0.25l-14.837-4.573C531.112,104.366,530.87,104.283,530.627,104.208z"/>
				</defs>
				<clipPath id="SVGID_78_">
					<use xlink:href="#SVGID_77_"  overflow="visible"/>
				</clipPath>
				<g clip-path="url(#SVGID_78_)" enable-background="new    ">
					<path fill="#037783" d="M546.188,109.03l-14.837-4.573c-0.239-0.091-0.481-0.174-0.725-0.249l14.838,4.573
						C545.708,108.856,545.95,108.939,546.188,109.03"/>
				</g>
			</g>
			<g>
				<polygon fill="#03737E" points="546.191,105.957 531.354,101.384 531.354,100.649 546.191,105.222 				"/>
			</g>
			<g enable-background="new    ">
				<defs>
					<path id="SVGID_79_" enable-background="new    " d="M539.326,114.742l-14.838-4.573c0.56,0.172,1.159,0.25,1.797,0.231
						c2.088-0.061,3.773-0.54,5.063-1.446l14.838,4.573c-1.289,0.907-2.975,1.385-5.063,1.446
						C540.485,114.991,539.886,114.915,539.326,114.742z"/>
				</defs>
				<clipPath id="SVGID_80_">
					<use xlink:href="#SVGID_79_"  overflow="visible"/>
				</clipPath>
				<g clip-path="url(#SVGID_80_)" enable-background="new    ">
					<path fill="#048997" d="M539.326,114.742l-14.838-4.573c0.56,0.172,1.159,0.25,1.797,0.231
						c0.435-0.013,0.852-0.043,1.251-0.092l14.838,4.573c-0.399,0.049-0.816,0.08-1.251,0.092
						C540.485,114.991,539.886,114.915,539.326,114.742"/>
					<path fill="#038592" d="M542.374,114.881l-14.838-4.573c0.867-0.106,1.652-0.298,2.356-0.576l14.838,4.573
						C544.026,114.583,543.241,114.774,542.374,114.881"/>
					<path fill="#03808D" d="M544.73,114.305l-14.838-4.573c0.485-0.191,0.933-0.425,1.341-0.699l14.838,4.573
						C545.663,113.88,545.216,114.113,544.73,114.305"/>
					<path fill="#037C88" d="M546.071,113.605l-14.838-4.573c0.039-0.025,0.077-0.052,0.114-0.078l14.838,4.573
						C546.147,113.554,546.109,113.58,546.071,113.605"/>
				</g>
			</g>
			<g enable-background="new    ">
				<defs>
					<path id="SVGID_81_" enable-background="new    " d="M546.191,105.222l-14.838-4.573c0.001-1.522-0.136-2.585-0.428-3.186
						c-0.309-0.636-0.996-1.163-2.069-1.589l14.838,4.573c1.073,0.426,1.761,0.952,2.069,1.588
						C546.056,102.637,546.192,103.7,546.191,105.222z"/>
				</defs>
				<clipPath id="SVGID_82_">
					<use xlink:href="#SVGID_81_"  overflow="visible"/>
				</clipPath>
				<g clip-path="url(#SVGID_82_)" enable-background="new    ">
					<path fill="#037783" d="M546.191,105.222l-14.838-4.573c0.001-1.522-0.136-2.585-0.428-3.186
						c-0.309-0.636-0.996-1.163-2.069-1.589l14.838,4.573c1.073,0.426,1.761,0.952,2.069,1.588
						C546.056,102.637,546.192,103.7,546.191,105.222"/>
				</g>
			</g>
			<g enable-background="new    ">
				<defs>
					<path id="SVGID_83_" enable-background="new    " d="M528.427,95.729c4.946,1.525,9.892,3.049,14.838,4.573
						c0.146,0.045,0.289,0.094,0.43,0.146l-14.838-4.573C528.716,95.823,528.573,95.774,528.427,95.729z"/>
				</defs>
				<clipPath id="SVGID_84_">
					<use xlink:href="#SVGID_83_"  overflow="visible"/>
				</clipPath>
				<g clip-path="url(#SVGID_84_)" enable-background="new    ">
					<path fill="#037783" d="M543.694,100.448l-14.838-4.573c-0.141-0.053-0.283-0.101-0.43-0.146l14.838,4.573
						C543.41,100.347,543.554,100.396,543.694,100.448"/>
				</g>
			</g>
			<g enable-background="new    ">
				<defs>
					<path id="SVGID_85_" enable-background="new    " d="M526.91,119.814c-4.946-1.524-9.893-3.048-14.838-4.573
						c-1-0.308-1.878-0.702-2.636-1.182c-2.327-1.455-3.495-3.222-3.494-5.31c0.002-2.303,1.438-4.226,4.302-5.787
						c2.854-1.552,6.567-2.403,11.14-2.536c4.187-0.122,7.503,0.204,9.97,0.956l14.838,4.573c-2.467-0.752-5.783-1.078-9.97-0.957
						c-4.572,0.132-8.285,0.984-11.14,2.536c-2.863,1.561-4.3,3.484-4.302,5.787c-0.002,2.087,1.167,3.854,3.494,5.31
						C525.032,119.113,525.91,119.507,526.91,119.814z"/>
				</defs>
				<clipPath id="SVGID_86_">
					<use xlink:href="#SVGID_85_"  overflow="visible"/>
				</clipPath>
				<g clip-path="url(#SVGID_86_)" enable-background="new    ">
					<path fill="#037783" d="M526.91,119.814l-14.838-4.573c-1-0.308-1.878-0.702-2.636-1.182c-2.327-1.455-3.495-3.222-3.494-5.31
						c0.001-1.392,0.526-2.646,1.575-3.765l14.838,4.573c-1.049,1.119-1.574,2.372-1.575,3.764c-0.002,2.087,1.167,3.854,3.494,5.31
						C525.032,119.113,525.91,119.507,526.91,119.814"/>
					<path fill="#037C88" d="M522.355,109.559l-14.838-4.573c0.448-0.479,0.993-0.933,1.634-1.362l14.837,4.573
						C523.349,108.625,522.804,109.08,522.355,109.559"/>
					<path fill="#03808D" d="M523.988,108.196l-14.837-4.573c0.337-0.227,0.701-0.447,1.093-0.66c0.58-0.316,1.196-0.602,1.848-0.86
						l14.838,4.573c-0.651,0.258-1.268,0.544-1.848,0.86C524.69,107.75,524.326,107.969,523.988,108.196"/>
					<path fill="#038592" d="M526.93,106.676l-14.838-4.573c1.72-0.68,3.686-1.156,5.9-1.427l14.838,4.573
						C530.615,105.521,528.649,105.997,526.93,106.676"/>
					<path fill="#048997" d="M532.83,105.25l-14.838-4.573c1.072-0.131,2.203-0.214,3.392-0.249c4.187-0.122,7.503,0.204,9.97,0.956
						l14.838,4.573c-2.467-0.752-5.783-1.078-9.97-0.957C535.033,105.035,533.902,105.118,532.83,105.25"/>
				</g>
			</g>
			<g>
				<path fill="#05CFE3" d="M562.964,111.599l4.133-0.12l-0.006,7.75l-20.91,0.606l0.002-1.685
					c-2.89,1.508-6.758,2.337-11.604,2.478c-4.555,0.132-7.993-0.53-10.304-1.995c-2.327-1.456-3.496-3.223-3.494-5.31
					c0.002-2.302,1.438-4.226,4.302-5.787c2.854-1.552,6.567-2.403,11.14-2.536c4.187-0.122,7.503,0.204,9.97,0.957v-0.735
					c0.001-1.522-0.136-2.585-0.428-3.186c-0.309-0.636-0.996-1.163-2.069-1.588c-1.109-0.416-2.397-0.594-3.867-0.551
					c-2.69,0.078-4.754,0.926-6.199,2.545l-13.14-0.641c1.445-2.46,3.784-4.23,7.008-5.309c3.181-1.069,7.874-1.698,14.07-1.877
					c2.286-0.066,4.341-0.072,6.154-0.017c1.813,0.055,3.429,0.178,4.855,0.352c2.955,0.344,5.139,0.935,6.564,1.771
					c1.418,0.854,2.405,1.793,2.964,2.808c0.574,1.049,0.866,2.698,0.864,4.956L562.964,111.599z M546.186,113.527l0.003-4.497
					c-1.485-0.566-3.067-0.825-4.734-0.777c-1.462,0.042-2.63,0.38-3.499,1.015c-0.868,0.652-1.299,1.462-1.3,2.43
					c-0.001,1.003,0.446,1.796,1.331,2.398c0.91,0.619,1.959,0.911,3.137,0.876C543.211,114.912,544.896,114.434,546.186,113.527"/>
			</g>
			<g enable-background="new    ">
				<defs>
					<path id="SVGID_87_" enable-background="new    " d="M542.145,91.237c4.946,1.524,9.892,3.048,14.838,4.573
						c-1.205-0.372-2.673-0.658-4.406-0.86c-1.427-0.174-3.042-0.297-4.855-0.352c-1.813-0.055-3.868-0.049-6.154,0.017
						c-6.196,0.179-10.89,0.808-14.07,1.877c-3.224,1.079-5.563,2.849-7.008,5.309l-14.838-4.573
						c1.445-2.461,3.784-4.231,7.008-5.31c3.182-1.068,7.874-1.697,14.07-1.877c2.287-0.066,4.341-0.072,6.154-0.017
						c1.813,0.055,3.429,0.178,4.855,0.352C539.472,90.579,540.939,90.866,542.145,91.237z"/>
				</defs>
				<clipPath id="SVGID_88_">
					<use xlink:href="#SVGID_87_"  overflow="visible"/>
				</clipPath>
				<g clip-path="url(#SVGID_88_)" enable-background="new    ">
					<path fill="#037783" d="M520.488,101.801l-14.838-4.573c0.403-0.687,0.877-1.32,1.42-1.9l14.838,4.573
						C521.365,100.481,520.892,101.114,520.488,101.801"/>
					<path fill="#037C88" d="M521.908,99.901l-14.838-4.573c0.58-0.62,1.24-1.178,1.98-1.674l14.838,4.573
						C523.148,98.724,522.488,99.282,521.908,99.901"/>
					<path fill="#03808D" d="M523.889,98.227l-14.838-4.573c0.813-0.546,1.721-1.017,2.725-1.414l14.837,4.573
						C525.609,97.21,524.701,97.682,523.889,98.227"/>
					<path fill="#038592" d="M526.612,96.814l-14.837-4.573c0.286-0.113,0.581-0.22,0.883-0.322
						c1.723-0.578,3.888-1.028,6.494-1.347l14.838,4.573c-2.606,0.319-4.771,0.769-6.494,1.348
						C527.194,96.593,526.899,96.7,526.612,96.814"/>
					<path fill="#048997" d="M533.99,95.145l-14.838-4.573c2.209-0.271,4.734-0.447,7.576-0.53c2.287-0.066,4.341-0.072,6.154-0.017
						c1.813,0.055,3.429,0.178,4.855,0.352c1.733,0.202,3.201,0.488,4.406,0.86l14.838,4.573c-1.205-0.372-2.673-0.658-4.406-0.86
						c-1.427-0.174-3.042-0.297-4.855-0.352c-1.813-0.055-3.868-0.049-6.154,0.017C538.725,94.697,536.199,94.874,533.99,95.145"/>
				</g>
			</g>
		</g>
		<g enable-background="new    ">
			<g>
				<polygon fill="#048A98" points="511.979,113.076 497.143,108.503 500.976,108.392 515.813,112.965 				"/>
			</g>
			<g>
				<polygon fill="#03737E" points="495.198,121.312 480.36,116.739 480.368,105.782 495.206,110.355 				"/>
			</g>
			<g enable-background="new    ">
				<defs>
					<path id="SVGID_89_" enable-background="new    " d="M490.816,92.191c4.946,1.524,9.893,3.049,14.838,4.573
						c-1.697-0.523-3.732-0.75-6.107-0.681l-14.838-4.573C487.084,91.442,489.119,91.668,490.816,92.191z"/>
				</defs>
				<clipPath id="SVGID_90_">
					<use xlink:href="#SVGID_89_"  overflow="visible"/>
				</clipPath>
				<g clip-path="url(#SVGID_90_)" enable-background="new    ">
					<path fill="#048997" d="M499.547,96.083l-14.838-4.573c2.375-0.069,4.41,0.157,6.107,0.681l14.838,4.573
						C503.957,96.241,501.922,96.015,499.547,96.083"/>
				</g>
			</g>
			<g enable-background="new    ">
				<defs>
					<path id="SVGID_91_" enable-background="new    " d="M495.206,110.355l-14.838-4.573c0.002-2.383-0.264-3.952-0.795-4.698
						l14.837,4.573C494.942,106.403,495.208,107.972,495.206,110.355z"/>
				</defs>
				<clipPath id="SVGID_92_">
					<use xlink:href="#SVGID_91_"  overflow="visible"/>
				</clipPath>
				<g clip-path="url(#SVGID_92_)" enable-background="new    ">
					<path fill="#037783" d="M495.206,110.355l-14.838-4.573c0.002-2.383-0.264-3.952-0.795-4.698l14.837,4.573
						C494.942,106.403,495.208,107.972,495.206,110.355"/>
				</g>
			</g>
			<g enable-background="new    ">
				<defs>
					<path id="SVGID_93_" enable-background="new    " d="M478.306,100.279l14.838,4.573c0.554,0.171,0.977,0.439,1.266,0.805
						l-14.837-4.573C479.283,100.719,478.861,100.45,478.306,100.279z"/>
				</defs>
				<clipPath id="SVGID_94_">
					<use xlink:href="#SVGID_93_"  overflow="visible"/>
				</clipPath>
				<g clip-path="url(#SVGID_94_)" enable-background="new    ">
					<path fill="#037783" d="M494.41,105.657l-14.837-4.573c-0.29-0.365-0.712-0.634-1.267-0.805l14.838,4.573
						C493.698,105.023,494.121,105.292,494.41,105.657"/>
				</g>
			</g>
			<g>
				<polygon fill="#048A98" points="486.3,113.82 471.462,109.248 476.137,109.112 490.975,113.685 				"/>
			</g>
			<g enable-background="new    ">
				<defs>
					<path id="SVGID_95_" enable-background="new    " d="M486.31,100.051l-14.838-4.573c4.118-2.511,8.528-3.831,13.237-3.967
						l14.838,4.573C494.838,96.22,490.428,97.54,486.31,100.051z"/>
				</defs>
				<clipPath id="SVGID_96_">
					<use xlink:href="#SVGID_95_"  overflow="visible"/>
				</clipPath>
				<g clip-path="url(#SVGID_96_)" enable-background="new    ">
					<path fill="#03808D" d="M486.31,100.051l-14.838-4.573c1.393-0.85,2.819-1.563,4.279-2.14l14.838,4.573
						C489.129,98.488,487.702,99.201,486.31,100.051"/>
					<path fill="#038592" d="M490.589,97.911l-14.838-4.573c2.079-0.822,4.226-1.368,6.442-1.639l14.838,4.573
						C494.814,96.544,492.668,97.09,490.589,97.911"/>
					<path fill="#048997" d="M497.031,96.272L482.193,91.7c0.829-0.102,1.668-0.165,2.516-0.189l14.838,4.573
						C498.699,96.108,497.86,96.171,497.031,96.272"/>
				</g>
			</g>
			<g>
				<polygon fill="#03737E" points="469.532,114.307 454.694,109.733 454.7,100.586 469.538,105.159 				"/>
			</g>
			<g>
				<polygon fill="#048A98" points="465.363,114.427 450.525,109.854 454.694,109.733 469.532,114.307 				"/>
			</g>
			<g>
				<polygon fill="#03737E" points="465.357,122.177 450.52,117.604 450.525,109.854 465.363,114.427 				"/>
			</g>
			<g>
				<polygon fill="#048A98" points="465.375,97.531 450.537,92.958 471.474,92.351 486.312,96.924 				"/>
			</g>
			<g>
				<path fill="#05CFE3" d="M499.547,96.083c4.144-0.12,7.254,0.659,9.341,2.345c2.07,1.687,3.1,4.461,3.097,8.323l-0.005,6.325
					l3.834-0.111l-0.005,7.75l-20.61,0.597l0.008-10.957c0.002-2.383-0.264-3.952-0.796-4.698c-0.575-0.727-1.676-1.071-3.3-1.024
					c-1.487,0.043-3.094,0.52-4.805,1.438l-0.006,7.75l4.675-0.135l-0.006,7.75l-25.611,0.742l0.005-7.75l4.169-0.121l0.006-9.147
					l-4.168,0.121l0.005-7.75l20.937-0.607l-0.002,3.127C490.428,97.54,494.838,96.22,499.547,96.083z"/>
			</g>
			<g>
				<polygon fill="#03737E" points="465.37,105.28 450.532,100.708 450.537,92.958 465.375,97.531 				"/>
			</g>
		</g>
		<g enable-background="new    ">
			<g>
				<polygon fill="#048A98" points="456.992,114.67 442.154,110.097 446.288,109.977 461.126,114.55 				"/>
			</g>
			<g>
				<polygon fill="#03737E" points="440.209,122.905 425.372,118.333 425.373,116.648 440.211,121.221 				"/>
			</g>
			<g>
				<polygon fill="#03737E" points="440.214,116.598 425.376,112.025 425.38,107.528 440.217,112.101 				"/>
			</g>
			<g enable-background="new    ">
				<defs>
					<path id="SVGID_97_" enable-background="new    " d="M424.655,107.279c4.946,1.524,9.892,3.049,14.838,4.573
						c0.244,0.075,0.485,0.159,0.724,0.25l-14.837-4.573C425.141,107.437,424.899,107.354,424.655,107.279z"/>
				</defs>
				<clipPath id="SVGID_98_">
					<use xlink:href="#SVGID_97_"  overflow="visible"/>
				</clipPath>
				<g clip-path="url(#SVGID_98_)" enable-background="new    ">
					<path fill="#037783" d="M440.217,112.101l-14.837-4.573c-0.239-0.091-0.48-0.174-0.725-0.25l14.838,4.573
						C439.737,111.927,439.979,112.01,440.217,112.101"/>
				</g>
			</g>
			<g>
				<polygon fill="#03737E" points="440.22,109.028 425.382,104.455 425.382,103.721 440.22,108.293 				"/>
			</g>
			<g enable-background="new    ">
				<defs>
					<path id="SVGID_99_" enable-background="new    " d="M433.354,117.813l-14.838-4.573c0.561,0.173,1.16,0.25,1.797,0.231
						c2.088-0.061,3.773-0.54,5.063-1.446l14.838,4.573c-1.29,0.906-2.975,1.385-5.063,1.446
						C434.514,118.063,433.915,117.985,433.354,117.813z"/>
				</defs>
				<clipPath id="SVGID_100_">
					<use xlink:href="#SVGID_99_"  overflow="visible"/>
				</clipPath>
				<g clip-path="url(#SVGID_100_)" enable-background="new    ">
					<path fill="#048997" d="M433.354,117.813l-14.838-4.573c0.561,0.173,1.16,0.25,1.797,0.231
						c0.435-0.013,0.852-0.043,1.251-0.092l14.838,4.573c-0.4,0.049-0.817,0.08-1.251,0.092
						C434.514,118.063,433.915,117.985,433.354,117.813"/>
					<path fill="#038592" d="M436.403,117.952l-14.838-4.573c0.867-0.106,1.652-0.298,2.356-0.576l14.838,4.573
						C438.055,117.654,437.27,117.846,436.403,117.952"/>
					<path fill="#03808D" d="M438.759,117.376l-14.838-4.573c0.486-0.192,0.933-0.425,1.342-0.7l14.837,4.573
						C439.692,116.951,439.245,117.184,438.759,117.376"/>
					<path fill="#037C88" d="M440.101,116.676l-14.837-4.573c0.038-0.025,0.076-0.051,0.113-0.078l14.838,4.573
						C440.177,116.625,440.139,116.65,440.101,116.676"/>
				</g>
			</g>
			<g enable-background="new    ">
				<defs>
					<path id="SVGID_101_" enable-background="new    " d="M440.22,108.293l-14.838-4.573c0.001-1.523-0.144-2.585-0.427-3.186
						c-0.309-0.636-0.996-1.163-2.07-1.588l14.838,4.573c1.074,0.426,1.761,0.953,2.07,1.589
						C440.076,105.708,440.221,106.771,440.22,108.293z"/>
				</defs>
				<clipPath id="SVGID_102_">
					<use xlink:href="#SVGID_101_"  overflow="visible"/>
				</clipPath>
				<g clip-path="url(#SVGID_102_)" enable-background="new    ">
					<path fill="#037783" d="M440.22,108.293l-14.838-4.573c0.001-1.523-0.144-2.585-0.427-3.186
						c-0.309-0.636-0.996-1.163-2.07-1.588l14.838,4.573c1.074,0.426,1.761,0.953,2.07,1.589
						C440.076,105.708,440.221,106.771,440.22,108.293"/>
				</g>
			</g>
			<g enable-background="new    ">
				<defs>
					<path id="SVGID_103_" enable-background="new    " d="M422.456,98.8c4.946,1.524,9.892,3.049,14.838,4.573
						c0.146,0.045,0.289,0.094,0.429,0.146l-14.838-4.573C422.745,98.894,422.602,98.845,422.456,98.8z"/>
				</defs>
				<clipPath id="SVGID_104_">
					<use xlink:href="#SVGID_103_"  overflow="visible"/>
				</clipPath>
				<g clip-path="url(#SVGID_104_)" enable-background="new    ">
					<path fill="#037783" d="M437.723,103.519l-14.838-4.573c-0.14-0.053-0.283-0.102-0.429-0.146l14.838,4.573
						C437.44,103.418,437.583,103.467,437.723,103.519"/>
				</g>
			</g>
			<g enable-background="new    ">
				<defs>
					<path id="SVGID_105_" enable-background="new    " d="M420.939,122.886c-4.946-1.524-9.892-3.049-14.838-4.573
						c-1-0.308-1.878-0.702-2.635-1.182c-2.328-1.456-3.496-3.223-3.494-5.31c0.001-2.302,1.438-4.225,4.301-5.787
						c2.854-1.552,6.56-2.403,11.14-2.536c4.186-0.121,7.503,0.204,9.969,0.957l14.838,4.573c-2.466-0.752-5.783-1.078-9.969-0.957
						c-4.581,0.133-8.286,0.984-11.14,2.536c-2.863,1.561-4.3,3.484-4.301,5.786c-0.002,2.088,1.166,3.854,3.494,5.31
						C419.061,122.184,419.939,122.578,420.939,122.886z"/>
				</defs>
				<clipPath id="SVGID_106_">
					<use xlink:href="#SVGID_105_"  overflow="visible"/>
				</clipPath>
				<g clip-path="url(#SVGID_106_)" enable-background="new    ">
					<path fill="#037783" d="M420.939,122.886l-14.838-4.573c-1-0.308-1.878-0.702-2.635-1.182c-2.328-1.456-3.496-3.223-3.494-5.31
						c0.001-1.392,0.526-2.646,1.575-3.764l14.838,4.573c-1.048,1.118-1.574,2.372-1.575,3.764c-0.002,2.088,1.166,3.854,3.494,5.31
						C419.061,122.184,419.939,122.578,420.939,122.886"/>
					<path fill="#037C88" d="M416.384,112.63l-14.838-4.573c0.449-0.479,0.994-0.933,1.633-1.362l14.838,4.573
						C417.377,111.697,416.833,112.151,416.384,112.63"/>
					<path fill="#03808D" d="M418.018,111.267l-14.838-4.573c0.338-0.227,0.702-0.447,1.093-0.66
						c0.582-0.316,1.199-0.604,1.852-0.861l14.837,4.573c-0.652,0.258-1.27,0.545-1.851,0.861
						C418.72,110.82,418.355,111.041,418.018,111.267"/>
					<path fill="#038592" d="M420.962,109.746l-14.837-4.573c1.717-0.678,3.679-1.154,5.892-1.425l14.837,4.573
						C424.642,108.591,422.679,109.067,420.962,109.746"/>
					<path fill="#048997" d="M426.854,108.32l-14.837-4.573c1.073-0.131,2.205-0.214,3.396-0.249
						c4.186-0.121,7.503,0.204,9.969,0.957l14.838,4.573c-2.466-0.752-5.783-1.078-9.969-0.957
						C429.06,108.106,427.927,108.189,426.854,108.32"/>
				</g>
			</g>
			<g>
				<path fill="#05CFE3" d="M456.992,114.67l4.134-0.12l-0.006,7.75l-20.911,0.606l0.001-1.685
					c-2.889,1.508-6.757,2.337-11.604,2.478c-4.555,0.132-7.993-0.53-10.303-1.995c-2.328-1.456-3.496-3.222-3.494-5.31
					c0.001-2.302,1.438-4.225,4.301-5.786c2.854-1.552,6.559-2.403,11.14-2.536c4.186-0.121,7.502,0.204,9.969,0.957l0-0.734
					c0.001-1.523-0.144-2.585-0.427-3.186c-0.309-0.636-0.996-1.163-2.07-1.589c-1.109-0.416-2.398-0.593-3.868-0.551
					c-2.69,0.078-4.753,0.926-6.198,2.544l-13.141-0.64c1.446-2.461,3.785-4.231,7.008-5.31c3.181-1.068,7.874-1.697,14.07-1.877
					c2.287-0.066,4.341-0.072,6.154-0.017c1.813,0.055,3.429,0.178,4.855,0.353c2.947,0.344,5.139,0.935,6.565,1.771
					c1.417,0.855,2.405,1.794,2.963,2.808c0.575,1.049,0.866,2.698,0.864,4.956L456.992,114.67z M440.214,116.598l0.003-4.497
					c-1.486-0.566-3.067-0.825-4.735-0.776c-1.461,0.042-2.63,0.38-3.499,1.015c-0.868,0.652-1.299,1.462-1.299,2.429
					c-0.001,1.003,0.437,1.797,1.33,2.398c0.911,0.619,1.959,0.911,3.137,0.877C437.24,117.983,438.924,117.504,440.214,116.598"/>
			</g>
			<g enable-background="new    ">
				<defs>
					<path id="SVGID_107_" enable-background="new    " d="M436.177,94.31c4.946,1.524,9.892,3.049,14.838,4.573
						c-1.208-0.372-2.678-0.659-4.41-0.861c-1.427-0.174-3.042-0.297-4.855-0.353c-1.813-0.055-3.868-0.049-6.154,0.017
						c-6.196,0.18-10.889,0.809-14.07,1.877c-3.224,1.079-5.562,2.849-7.008,5.31l-14.837-4.573c1.446-2.461,3.785-4.231,7.008-5.31
						c3.181-1.069,7.874-1.697,14.07-1.877c2.286-0.066,4.34-0.072,6.154-0.017c1.813,0.055,3.429,0.178,4.855,0.352
						C433.499,93.65,434.969,93.938,436.177,94.31z"/>
				</defs>
				<clipPath id="SVGID_108_">
					<use xlink:href="#SVGID_107_"  overflow="visible"/>
				</clipPath>
				<g clip-path="url(#SVGID_108_)" enable-background="new    ">
					<path fill="#037783" d="M414.517,104.873l-14.837-4.573c0.404-0.688,0.877-1.321,1.419-1.9l14.838,4.573
						C415.394,103.552,414.92,104.186,414.517,104.873"/>
					<path fill="#037C88" d="M415.937,102.973L401.099,98.4c0.581-0.62,1.241-1.178,1.981-1.675l14.837,4.573
						C417.178,101.794,416.518,102.353,415.937,102.973"/>
					<path fill="#03808D" d="M417.917,101.298l-14.837-4.573c0.813-0.545,1.721-1.017,2.724-1.413l14.838,4.573
						C419.638,100.281,418.729,100.752,417.917,101.298"/>
					<path fill="#038592" d="M420.642,99.885l-14.838-4.573c0.287-0.113,0.581-0.221,0.884-0.322
						c1.722-0.579,3.887-1.028,6.494-1.348l14.837,4.573c-2.607,0.319-4.772,0.769-6.494,1.347
						C421.223,99.664,420.928,99.771,420.642,99.885"/>
					<path fill="#048997" d="M428.019,98.216l-14.837-4.573c2.208-0.27,4.734-0.447,7.576-0.529c2.286-0.066,4.34-0.072,6.154-0.017
						c1.813,0.055,3.429,0.178,4.855,0.352c1.731,0.202,3.202,0.49,4.41,0.862l14.838,4.573c-1.208-0.372-2.678-0.659-4.41-0.861
						c-1.427-0.174-3.042-0.297-4.855-0.353c-1.813-0.055-3.868-0.049-6.154,0.017C432.753,97.769,430.228,97.945,428.019,98.216"/>
				</g>
			</g>
		</g>
		<g enable-background="new    ">
			<g>
				<polygon fill="#048A98" points="405.271,115.452 390.433,110.879 394.171,110.771 409.009,115.343 				"/>
			</g>
			<g>
				<polygon fill="#03737E" points="384.792,124.512 369.954,119.938 369.96,111.472 384.798,116.045 				"/>
			</g>
			<g>
				<polygon fill="#048A98" points="384.798,116.045 369.96,111.472 373.665,111.365 388.502,115.938 				"/>
			</g>
			<g>
				<polygon fill="#03737E" points="388.502,115.938 373.665,111.365 373.679,91.629 388.517,96.202 				"/>
			</g>
			<g>
				<polygon fill="#048A98" points="381.122,89.276 366.284,84.703 394.088,83.897 408.925,88.47 				"/>
			</g>
			<g>
				<polygon fill="#037783" points="374.107,103.123 359.27,98.55 366.284,84.703 381.122,89.276 				"/>
			</g>
			<g>
				<polygon fill="#03737E" points="367.551,125.011 352.713,120.438 338.862,92.897 353.7,97.47 				"/>
			</g>
			<g>
				<polygon fill="#048A98" points="353.686,116.947 338.848,112.374 342.518,112.268 357.355,116.84 				"/>
			</g>
			<g>
				<polygon fill="#048A98" points="339.384,117.361 324.546,112.788 328.113,112.685 342.951,117.258 				"/>
			</g>
			<g>
				<polygon fill="#03737E" points="339.378,125.828 324.541,121.255 324.546,112.788 339.384,117.361 				"/>
			</g>
			<g>
				<polygon fill="#03737E" points="342.951,117.258 328.113,112.685 328.126,94.275 342.964,98.848 				"/>
			</g>
			<g>
				<polygon fill="#048A98" points="339.301,90.488 324.463,85.915 352.438,85.104 367.276,89.677 				"/>
			</g>
			<g>
				<polygon fill="#05CFE3" points="408.925,88.47 408.919,96.937 405.284,97.042 405.271,115.452 409.009,115.343 409.003,123.81 
					384.792,124.512 384.798,116.045 388.502,115.938 388.517,96.202 374.487,124.81 367.551,125.011 353.7,97.47 353.686,116.947 
					357.355,116.84 357.349,125.307 339.378,125.828 339.384,117.361 342.951,117.258 342.964,98.848 339.294,98.954 
					339.301,90.488 367.276,89.677 374.107,103.123 381.122,89.276 				"/>
			</g>
			<g>
				<polygon fill="#03737E" points="339.294,98.954 324.457,94.381 324.463,85.915 339.301,90.488 				"/>
			</g>
		</g>
	</g>
</g>
</svg>
